<svg width="1500" height="1543" viewBox="0 0 1500 1543" fill="none" xmlns="http://www.w3.org/2000/svg">
<rect x="-0.168457" y="43.7292" width="1500" height="1415.35" fill="url(#paint0_linear_634_3)"/>
<mask id="mask0_634_3" style="mask-type:luminance" maskUnits="userSpaceOnUse" x="-1" y="43" width="1501" height="1301">
<rect x="-0.168457" y="43.7292" width="1500" height="1299.35" fill="white"/>
</mask>
<g mask="url(#mask0_634_3)">
</g>
<path d="M-59.4976 340.211C-59.4976 340.211 -52.6851 286.086 223.904 317.788C500.493 349.489 722.582 525.007 1067.98 340.211C1413.37 155.414 1581.64 235.055 1581.64 235.055L1547.58 0L-81.979 42.5263" fill="white"/>
<path d="M1559.14 1341.87C1559.14 1341.87 1552.33 1373.73 1275.74 1355.07C999.149 1336.41 777.061 1233.08 431.665 1341.87C86.269 1450.66 -82.0006 1403.78 -82.0006 1403.78L-47.9379 1542.15L1581.62 1517.12" fill="white"/>
<g opacity="0.3">
<path d="M250.97 601.865C214.833 601.865 161 593.317 161 557.179C161 521.042 214.833 471 250.97 471C287.107 471 316.402 500.295 316.402 536.432C316.402 572.57 287.107 601.865 250.97 601.865Z" fill="url(#paint1_linear_634_3)"/>
<mask id="mask1_634_3" style="mask-type:luminance" maskUnits="userSpaceOnUse" x="161" y="471" width="156" height="131">
<path d="M250.97 601.865C214.833 601.865 161 593.317 161 557.179C161 521.042 214.833 471 250.97 471C287.107 471 316.402 500.295 316.402 536.432C316.402 572.57 287.107 601.865 250.97 601.865Z" fill="white"/>
</mask>
<g mask="url(#mask1_634_3)">
</g>
</g>
<g opacity="0.5">
<path d="M1335.84 1259.86C1314.62 1259.86 1283 1254.84 1283 1233.62C1283 1212.39 1314.62 1183 1335.84 1183C1357.07 1183 1374.28 1200.21 1374.28 1221.43C1374.28 1242.66 1357.07 1259.86 1335.84 1259.86Z" fill="url(#paint2_linear_634_3)"/>
<mask id="mask2_634_3" style="mask-type:luminance" maskUnits="userSpaceOnUse" x="1283" y="1183" width="92" height="77">
<path d="M1335.84 1259.86C1314.62 1259.86 1283 1254.84 1283 1233.62C1283 1212.39 1314.62 1183 1335.84 1183C1357.07 1183 1374.28 1200.21 1374.28 1221.43C1374.28 1242.66 1357.07 1259.86 1335.84 1259.86Z" fill="white"/>
</mask>
<g mask="url(#mask2_634_3)">
</g>
</g>
<path d="M1026.07 1001.6C1049.37 1001.6 1068.26 982.712 1068.26 959.408C1068.26 936.104 1049.37 917.213 1026.07 917.213C1002.76 917.213 983.871 936.104 983.871 959.408C983.871 982.712 1002.76 1001.6 1026.07 1001.6Z" fill="#D8D8D8"/>
<path d="M373.501 1055.08C411.572 1055.08 442.434 1024.22 442.434 986.146C442.434 948.075 411.572 917.213 373.501 917.213C335.431 917.213 304.568 948.075 304.568 986.146C304.568 1024.22 335.431 1055.08 373.501 1055.08Z" fill="#D8D8D8"/>
<path d="M700.203 1139.47C723.507 1139.47 742.399 1120.58 742.399 1097.27C742.399 1073.97 723.507 1055.08 700.203 1055.08C676.899 1055.08 658.008 1073.97 658.008 1097.27C658.008 1120.58 676.899 1139.47 700.203 1139.47Z" fill="#D8D8D8"/>
<path d="M258.195 1150.33C281.499 1150.33 300.391 1131.44 300.391 1108.14C300.391 1084.83 281.499 1065.94 258.195 1065.94C234.892 1065.94 216 1084.83 216 1108.14C216 1131.44 234.892 1150.33 258.195 1150.33Z" fill="#D8D8D8"/>
<path d="M1140.54 1104.38C1163.84 1104.38 1182.73 1085.49 1182.73 1062.18C1182.73 1038.88 1163.84 1019.99 1140.54 1019.99C1117.24 1019.99 1098.34 1038.88 1098.34 1062.18C1098.34 1085.49 1117.24 1104.38 1140.54 1104.38Z" fill="#D8D8D8"/>
<path d="M1037.77 1225.53C1061.07 1225.53 1079.96 1206.64 1079.96 1183.34C1079.96 1160.03 1061.07 1141.14 1037.77 1141.14C1014.46 1141.14 995.57 1160.03 995.57 1183.34C995.57 1206.64 1014.46 1225.53 1037.77 1225.53Z" fill="#D8D8D8"/>
<path d="M1240.8 921.391C1264.11 921.391 1283 902.499 1283 879.195C1283 855.892 1264.11 837 1240.8 837C1217.5 837 1198.61 855.892 1198.61 879.195C1198.61 902.499 1217.5 921.391 1240.8 921.391Z" fill="#D8D8D8"/>
<path d="M877.34 1070.12C900.644 1070.12 919.535 1051.23 919.535 1027.92C919.535 1004.62 900.644 985.729 877.34 985.729C854.036 985.729 835.145 1004.62 835.145 1027.92C835.145 1051.23 854.036 1070.12 877.34 1070.12Z" fill="#D8D8D8"/>
<path d="M524.32 1004.11C543.24 1004.11 558.578 988.773 558.578 969.853C558.578 950.933 543.24 935.596 524.32 935.596C505.4 935.596 490.062 950.933 490.062 969.853C490.062 988.773 505.4 1004.11 524.32 1004.11Z" fill="#D8D8D8"/>
<path d="M983.872 1088.5C996.332 1088.5 1006.43 1078.4 1006.43 1065.94C1006.43 1053.48 996.332 1043.38 983.872 1043.38C971.413 1043.38 961.312 1053.48 961.312 1065.94C961.312 1078.4 971.413 1088.5 983.872 1088.5Z" fill="#D8D8D8"/>
<path d="M721.508 1009.12C739.505 1009.12 754.095 994.535 754.095 976.538C754.095 958.541 739.505 943.951 721.508 943.951C703.511 943.951 688.922 958.541 688.922 976.538C688.922 994.535 703.511 1009.12 721.508 1009.12Z" fill="#D8D8D8"/>
<path d="M479.199 1126.94C491.658 1126.94 501.758 1116.84 501.758 1104.38C501.758 1091.92 491.658 1081.82 479.199 1081.82C466.739 1081.82 456.639 1091.92 456.639 1104.38C456.639 1116.84 466.739 1126.94 479.199 1126.94Z" fill="#D8D8D8"/>
<path d="M592.834 1072.63C608.985 1072.63 622.078 1059.53 622.078 1043.38C622.078 1027.23 608.985 1014.14 592.834 1014.14C576.683 1014.14 563.59 1027.23 563.59 1043.38C563.59 1059.53 576.683 1072.63 592.834 1072.63Z" fill="#D8D8D8"/>
<path opacity="0.7" fill-rule="evenodd" clip-rule="evenodd" d="M788 1049C779.716 1049 773 1055.72 773 1064V1092.14L751.255 1105.89C750.001 1106.69 749.994 1108.51 751.241 1109.28L773 1122.8V1151C773 1159.28 779.716 1166 788 1166H1168C1176.28 1166 1183 1159.28 1183 1151V1064C1183 1055.72 1176.28 1049 1168 1049H788Z" fill="white"/>
<path d="M1153.01 1069.68C1146.38 1069.68 1141.01 1075.05 1141 1081.67C1140.99 1088.3 1146.36 1093.68 1152.99 1093.68C1159.62 1093.68 1164.99 1088.31 1165 1081.68C1165 1075.06 1159.63 1069.69 1153.01 1069.68ZM1152.99 1091.69C1147.47 1091.69 1142.99 1087.21 1142.99 1081.68C1142.99 1076.16 1147.47 1071.68 1152.99 1071.68C1158.51 1071.69 1162.99 1076.16 1162.99 1081.68C1162.99 1087.21 1158.51 1091.69 1152.99 1091.69Z" fill="url(#paint3_linear_634_3)"/>
<path d="M1156.23 1081.1C1157.03 1080.65 1157.47 1079.74 1157.32 1078.83C1157.13 1077.43 1155.46 1076.9 1154.14 1076.79V1074.68H1152.84V1076.77H1151.97V1074.68H1150.67V1076.77H1148.05V1078.12H1149.02C1149.46 1078.12 1149.67 1078.25 1149.67 1078.6V1084.39C1149.67 1084.87 1149.43 1085.02 1149.17 1085.02H1148.18V1086.39H1150.7V1088.53H1152.01V1086.39H1152.89V1088.53H1154.16V1086.39H1154.44C1157.11 1086.39 1158.01 1085.08 1158.01 1083.3C1157.98 1082.25 1157.25 1081.34 1156.23 1081.1ZM1151.97 1078.2H1152.9C1153.55 1078.2 1154.83 1078.31 1154.83 1079.37C1154.87 1080.06 1154.37 1080.67 1153.69 1080.75H1151.97V1078.2ZM1153.41 1084.89V1084.88H1151.97V1082.09H1153.64C1154.03 1082.09 1155.5 1082.22 1155.5 1083.26C1155.5 1084.3 1154.8 1084.89 1153.41 1084.89Z" fill="url(#paint4_linear_634_3)"/>
<path d="M805.926 1071.94V1072.98H801.684V1076.27H805.128V1077.31H801.684V1081.7H800.41V1071.94H805.926ZM814.465 1077.57C814.465 1077.81 814.451 1078.07 814.423 1078.34H808.291C808.337 1079.1 808.594 1079.69 809.061 1080.12C809.537 1080.54 810.111 1080.75 810.783 1080.75C811.333 1080.75 811.791 1080.62 812.155 1080.37C812.528 1080.11 812.789 1079.76 812.939 1079.34H814.311C814.105 1080.07 813.695 1080.67 813.079 1081.14C812.463 1081.6 811.697 1081.83 810.783 1081.83C810.055 1081.83 809.401 1081.66 808.823 1081.34C808.253 1081.01 807.805 1080.55 807.479 1079.95C807.152 1079.34 806.989 1078.64 806.989 1077.85C806.989 1077.06 807.147 1076.36 807.465 1075.77C807.782 1075.17 808.225 1074.71 808.795 1074.39C809.373 1074.07 810.036 1073.9 810.783 1073.9C811.511 1073.9 812.155 1074.06 812.715 1074.38C813.275 1074.7 813.704 1075.14 814.003 1075.7C814.311 1076.25 814.465 1076.87 814.465 1077.57ZM813.149 1077.31C813.149 1076.82 813.041 1076.4 812.827 1076.06C812.612 1075.7 812.318 1075.44 811.945 1075.26C811.581 1075.07 811.175 1074.98 810.727 1074.98C810.083 1074.98 809.532 1075.19 809.075 1075.6C808.627 1076.01 808.37 1076.58 808.305 1077.31H813.149ZM825.372 1073.89C825.97 1073.89 826.502 1074.02 826.968 1074.27C827.435 1074.51 827.804 1074.88 828.074 1075.37C828.345 1075.87 828.48 1076.47 828.48 1077.18V1081.7H827.22V1077.36C827.22 1076.6 827.029 1076.01 826.646 1075.61C826.273 1075.2 825.764 1075 825.12 1075C824.458 1075 823.93 1075.21 823.538 1075.64C823.146 1076.06 822.95 1076.67 822.95 1077.47V1081.7H821.69V1077.36C821.69 1076.6 821.499 1076.01 821.116 1075.61C820.743 1075.2 820.234 1075 819.59 1075C818.928 1075 818.4 1075.21 818.008 1075.64C817.616 1076.06 817.42 1076.67 817.42 1077.47V1081.7H816.146V1074.03H817.42V1075.14C817.672 1074.73 818.008 1074.43 818.428 1074.21C818.858 1074 819.329 1073.89 819.842 1073.89C820.486 1073.89 821.056 1074.03 821.55 1074.32C822.045 1074.61 822.414 1075.04 822.656 1075.6C822.871 1075.06 823.226 1074.64 823.72 1074.34C824.215 1074.04 824.766 1073.89 825.372 1073.89ZM831.228 1072.78C830.986 1072.78 830.78 1072.7 830.612 1072.53C830.444 1072.36 830.36 1072.16 830.36 1071.92C830.36 1071.67 830.444 1071.47 830.612 1071.3C830.78 1071.13 830.986 1071.05 831.228 1071.05C831.462 1071.05 831.658 1071.13 831.816 1071.3C831.984 1071.47 832.068 1071.67 832.068 1071.92C832.068 1072.16 831.984 1072.36 831.816 1072.53C831.658 1072.7 831.462 1072.78 831.228 1072.78ZM831.844 1074.03V1081.7H830.57V1074.03H831.844ZM840.87 1075.08H839.26V1081.7H837.986V1075.08H836.992V1074.03H837.986V1073.48C837.986 1072.62 838.205 1072 838.644 1071.61C839.092 1071.21 839.806 1071.01 840.786 1071.01V1072.07C840.226 1072.07 839.829 1072.18 839.596 1072.41C839.372 1072.62 839.26 1072.98 839.26 1073.48V1074.03H840.87V1075.08ZM843.629 1075.28C843.853 1074.84 844.171 1074.5 844.581 1074.25C845.001 1074.01 845.51 1073.89 846.107 1073.89V1075.21H845.771C844.343 1075.21 843.629 1075.98 843.629 1077.53V1081.7H842.355V1074.03H843.629V1075.28ZM850.924 1081.83C850.205 1081.83 849.552 1081.66 848.964 1081.34C848.385 1081.01 847.928 1080.55 847.592 1079.95C847.265 1079.34 847.102 1078.64 847.102 1077.85C847.102 1077.07 847.27 1076.38 847.606 1075.78C847.951 1075.17 848.418 1074.71 849.006 1074.39C849.594 1074.07 850.252 1073.9 850.98 1073.9C851.708 1073.9 852.366 1074.07 852.954 1074.39C853.542 1074.71 854.004 1075.17 854.34 1075.77C854.685 1076.36 854.858 1077.06 854.858 1077.85C854.858 1078.64 854.681 1079.34 854.326 1079.95C853.981 1080.55 853.509 1081.01 852.912 1081.34C852.315 1081.66 851.652 1081.83 850.924 1081.83ZM850.924 1080.71C851.381 1080.71 851.811 1080.6 852.212 1080.39C852.613 1080.17 852.935 1079.85 853.178 1079.42C853.43 1078.99 853.556 1078.47 853.556 1077.85C853.556 1077.24 853.435 1076.71 853.192 1076.28C852.949 1075.85 852.632 1075.54 852.24 1075.33C851.848 1075.12 851.423 1075.01 850.966 1075.01C850.499 1075.01 850.07 1075.12 849.678 1075.33C849.295 1075.54 848.987 1075.85 848.754 1076.28C848.521 1076.71 848.404 1077.24 848.404 1077.85C848.404 1078.48 848.516 1079 848.74 1079.43C848.973 1079.86 849.281 1080.18 849.664 1080.4C850.047 1080.6 850.467 1080.71 850.924 1080.71ZM865.759 1073.89C866.356 1073.89 866.888 1074.02 867.355 1074.27C867.822 1074.51 868.19 1074.88 868.461 1075.37C868.732 1075.87 868.867 1076.47 868.867 1077.18V1081.7H867.607V1077.36C867.607 1076.6 867.416 1076.01 867.033 1075.61C866.66 1075.2 866.151 1075 865.507 1075C864.844 1075 864.317 1075.21 863.925 1075.64C863.533 1076.06 863.337 1076.67 863.337 1077.47V1081.7H862.077V1077.36C862.077 1076.6 861.886 1076.01 861.503 1075.61C861.13 1075.2 860.621 1075 859.977 1075C859.314 1075 858.787 1075.21 858.395 1075.64C858.003 1076.06 857.807 1076.67 857.807 1077.47V1081.7H856.533V1074.03H857.807V1075.14C858.059 1074.73 858.395 1074.43 858.815 1074.21C859.244 1074 859.716 1073.89 860.229 1073.89C860.873 1073.89 861.442 1074.03 861.937 1074.32C862.432 1074.61 862.8 1075.04 863.043 1075.6C863.258 1075.06 863.612 1074.64 864.107 1074.34C864.602 1074.04 865.152 1073.89 865.759 1073.89ZM882.361 1081.7H881.087L875.963 1073.93V1081.7H874.689V1071.93H875.963L881.087 1079.69V1071.93H882.361V1081.7ZM885.191 1072.78C884.948 1072.78 884.743 1072.7 884.575 1072.53C884.407 1072.36 884.323 1072.16 884.323 1071.92C884.323 1071.67 884.407 1071.47 884.575 1071.3C884.743 1071.13 884.948 1071.05 885.191 1071.05C885.424 1071.05 885.62 1071.13 885.779 1071.3C885.947 1071.47 886.031 1071.67 886.031 1071.92C886.031 1072.16 885.947 1072.36 885.779 1072.53C885.62 1072.7 885.424 1072.78 885.191 1072.78ZM885.807 1074.03V1081.7H884.533V1074.03H885.807ZM891.142 1073.9C891.805 1073.9 892.384 1074.05 892.878 1074.34C893.382 1074.63 893.756 1074.99 893.998 1075.43V1074.03H895.286V1081.87C895.286 1082.57 895.137 1083.19 894.838 1083.73C894.54 1084.28 894.11 1084.71 893.55 1085.02C893 1085.33 892.356 1085.48 891.618 1085.48C890.61 1085.48 889.77 1085.24 889.098 1084.77C888.426 1084.29 888.03 1083.64 887.908 1082.82H889.168C889.308 1083.29 889.598 1083.66 890.036 1083.94C890.475 1084.23 891.002 1084.38 891.618 1084.38C892.318 1084.38 892.888 1084.16 893.326 1083.72C893.774 1083.28 893.998 1082.66 893.998 1081.87V1080.26C893.746 1080.71 893.373 1081.08 892.878 1081.38C892.384 1081.68 891.805 1081.83 891.142 1081.83C890.461 1081.83 889.84 1081.66 889.28 1081.32C888.73 1080.99 888.296 1080.52 887.978 1079.91C887.661 1079.3 887.502 1078.61 887.502 1077.84C887.502 1077.05 887.661 1076.37 887.978 1075.78C888.296 1075.18 888.73 1074.72 889.28 1074.39C889.84 1074.07 890.461 1073.9 891.142 1073.9ZM893.998 1077.85C893.998 1077.27 893.882 1076.77 893.648 1076.34C893.415 1075.91 893.098 1075.58 892.696 1075.36C892.304 1075.13 891.87 1075.01 891.394 1075.01C890.918 1075.01 890.484 1075.12 890.092 1075.35C889.7 1075.57 889.388 1075.9 889.154 1076.33C888.921 1076.75 888.804 1077.26 888.804 1077.84C888.804 1078.43 888.921 1078.94 889.154 1079.38C889.388 1079.81 889.7 1080.14 890.092 1080.37C890.484 1080.6 890.918 1080.71 891.394 1080.71C891.87 1080.71 892.304 1080.6 892.696 1080.37C893.098 1080.14 893.415 1079.81 893.648 1079.38C893.882 1078.94 893.998 1078.43 893.998 1077.85ZM904.439 1077.57C904.439 1077.81 904.425 1078.07 904.397 1078.34H898.265C898.312 1079.1 898.569 1079.69 899.035 1080.12C899.511 1080.54 900.085 1080.75 900.757 1080.75C901.308 1080.75 901.765 1080.62 902.129 1080.37C902.503 1080.11 902.764 1079.76 902.913 1079.34H904.285C904.08 1080.07 903.669 1080.67 903.053 1081.14C902.437 1081.6 901.672 1081.83 900.757 1081.83C900.029 1081.83 899.376 1081.66 898.797 1081.34C898.228 1081.01 897.78 1080.55 897.453 1079.95C897.127 1079.34 896.963 1078.64 896.963 1077.85C896.963 1077.06 897.122 1076.36 897.439 1075.77C897.757 1075.17 898.2 1074.71 898.769 1074.39C899.348 1074.07 900.011 1073.9 900.757 1073.9C901.485 1073.9 902.129 1074.06 902.689 1074.38C903.249 1074.7 903.679 1075.14 903.977 1075.7C904.285 1076.25 904.439 1076.87 904.439 1077.57ZM903.123 1077.31C903.123 1076.82 903.016 1076.4 902.801 1076.06C902.587 1075.7 902.293 1075.44 901.919 1075.26C901.555 1075.07 901.149 1074.98 900.701 1074.98C900.057 1074.98 899.507 1075.19 899.049 1075.6C898.601 1076.01 898.345 1076.58 898.279 1077.31H903.123ZM907.395 1075.28C907.619 1074.84 907.936 1074.5 908.347 1074.25C908.767 1074.01 909.276 1073.89 909.873 1073.89V1075.21H909.537C908.109 1075.21 907.395 1075.98 907.395 1077.53V1081.7H906.121V1074.03H907.395V1075.28ZM912.002 1072.78C911.759 1072.78 911.554 1072.7 911.386 1072.53C911.218 1072.36 911.134 1072.16 911.134 1071.92C911.134 1071.67 911.218 1071.47 911.386 1071.3C911.554 1071.13 911.759 1071.05 912.002 1071.05C912.235 1071.05 912.431 1071.13 912.59 1071.3C912.758 1071.47 912.842 1071.67 912.842 1071.92C912.842 1072.16 912.758 1072.36 912.59 1072.53C912.431 1072.7 912.235 1072.78 912.002 1072.78ZM912.618 1074.03V1081.7H911.344V1074.03H912.618ZM914.313 1077.84C914.313 1077.05 914.472 1076.37 914.789 1075.78C915.106 1075.18 915.54 1074.72 916.091 1074.39C916.651 1074.07 917.272 1073.9 917.953 1073.9C918.625 1073.9 919.208 1074.05 919.703 1074.34C920.198 1074.63 920.566 1074.99 920.809 1075.43V1074.03H922.097V1081.7H920.809V1080.27C920.557 1080.72 920.179 1081.09 919.675 1081.39C919.18 1081.68 918.602 1081.83 917.939 1081.83C917.258 1081.83 916.642 1081.66 916.091 1081.32C915.54 1080.99 915.106 1080.52 914.789 1079.91C914.472 1079.3 914.313 1078.61 914.313 1077.84ZM920.809 1077.85C920.809 1077.27 920.692 1076.77 920.459 1076.34C920.226 1075.91 919.908 1075.58 919.507 1075.36C919.115 1075.13 918.681 1075.01 918.205 1075.01C917.729 1075.01 917.295 1075.12 916.903 1075.35C916.511 1075.57 916.198 1075.9 915.965 1076.33C915.732 1076.75 915.615 1077.26 915.615 1077.84C915.615 1078.43 915.732 1078.94 915.965 1079.38C916.198 1079.81 916.511 1080.14 916.903 1080.37C917.295 1080.6 917.729 1080.71 918.205 1080.71C918.681 1080.71 919.115 1080.6 919.507 1080.37C919.908 1080.14 920.226 1079.81 920.459 1079.38C920.692 1078.94 920.809 1078.43 920.809 1077.85Z" fill="#333333"/>
<path d="M811.668 1116.74L809.472 1125.17H806.988L805.644 1119.62L804.252 1125.17H801.768L799.632 1116.74H801.828L803.04 1122.88L804.54 1116.74H806.796L808.236 1122.88L809.46 1116.74H811.668ZM815.745 1125.26C815.089 1125.26 814.497 1125.12 813.969 1124.84C813.449 1124.56 813.037 1124.16 812.733 1123.64C812.437 1123.12 812.289 1122.52 812.289 1121.82C812.289 1121.13 812.441 1120.53 812.745 1120.01C813.049 1119.48 813.465 1119.08 813.993 1118.8C814.521 1118.52 815.113 1118.38 815.769 1118.38C816.425 1118.38 817.017 1118.52 817.545 1118.8C818.073 1119.08 818.489 1119.48 818.793 1120.01C819.097 1120.53 819.249 1121.13 819.249 1121.82C819.249 1122.51 819.093 1123.12 818.781 1123.64C818.477 1124.16 818.057 1124.56 817.521 1124.84C816.993 1125.12 816.401 1125.26 815.745 1125.26ZM815.745 1123.49C816.137 1123.49 816.469 1123.34 816.741 1123.06C817.021 1122.77 817.161 1122.36 817.161 1121.82C817.161 1121.28 817.025 1120.87 816.753 1120.58C816.489 1120.3 816.161 1120.15 815.769 1120.15C815.369 1120.15 815.037 1120.3 814.773 1120.58C814.509 1120.86 814.377 1121.28 814.377 1121.82C814.377 1122.36 814.505 1122.77 814.761 1123.06C815.025 1123.34 815.353 1123.49 815.745 1123.49ZM824.418 1118.4C825.202 1118.4 825.826 1118.66 826.29 1119.17C826.762 1119.67 826.998 1120.37 826.998 1121.26V1125.17H824.958V1121.53C824.958 1121.08 824.842 1120.74 824.61 1120.49C824.378 1120.24 824.066 1120.12 823.674 1120.12C823.282 1120.12 822.97 1120.24 822.738 1120.49C822.506 1120.74 822.39 1121.08 822.39 1121.53V1125.17H820.338V1118.47H822.39V1119.36C822.598 1119.06 822.878 1118.83 823.23 1118.66C823.582 1118.49 823.978 1118.4 824.418 1118.4ZM828.016 1121.81C828.016 1121.12 828.144 1120.52 828.4 1120C828.664 1119.48 829.02 1119.08 829.468 1118.8C829.916 1118.52 830.416 1118.38 830.968 1118.38C831.408 1118.38 831.808 1118.47 832.168 1118.65C832.536 1118.84 832.824 1119.08 833.032 1119.4V1116.29H835.084V1125.17H833.032V1124.21C832.84 1124.53 832.564 1124.78 832.204 1124.98C831.852 1125.17 831.44 1125.26 830.968 1125.26C830.416 1125.26 829.916 1125.12 829.468 1124.84C829.02 1124.56 828.664 1124.15 828.4 1123.63C828.144 1123.1 828.016 1122.5 828.016 1121.81ZM833.032 1121.82C833.032 1121.31 832.888 1120.9 832.6 1120.61C832.32 1120.31 831.976 1120.16 831.568 1120.16C831.16 1120.16 830.812 1120.31 830.524 1120.61C830.244 1120.9 830.104 1121.3 830.104 1121.81C830.104 1122.32 830.244 1122.73 830.524 1123.03C830.812 1123.33 831.16 1123.48 831.568 1123.48C831.976 1123.48 832.32 1123.33 832.6 1123.03C832.888 1122.74 833.032 1122.33 833.032 1121.82ZM842.88 1121.71C842.88 1121.9 842.868 1122.1 842.844 1122.31H838.2C838.232 1122.73 838.364 1123.05 838.596 1123.27C838.836 1123.49 839.128 1123.6 839.472 1123.6C839.984 1123.6 840.34 1123.38 840.54 1122.95H842.724C842.612 1123.39 842.408 1123.78 842.112 1124.14C841.824 1124.49 841.46 1124.76 841.02 1124.96C840.58 1125.16 840.088 1125.26 839.544 1125.26C838.888 1125.26 838.304 1125.12 837.792 1124.84C837.28 1124.56 836.88 1124.16 836.592 1123.64C836.304 1123.12 836.16 1122.52 836.16 1121.82C836.16 1121.12 836.3 1120.52 836.58 1120C836.868 1119.48 837.268 1119.08 837.78 1118.8C838.292 1118.52 838.88 1118.38 839.544 1118.38C840.192 1118.38 840.768 1118.51 841.272 1118.78C841.776 1119.06 842.168 1119.44 842.448 1119.95C842.736 1120.45 842.88 1121.04 842.88 1121.71ZM840.78 1121.17C840.78 1120.82 840.66 1120.54 840.42 1120.33C840.18 1120.12 839.88 1120.02 839.52 1120.02C839.176 1120.02 838.884 1120.12 838.644 1120.32C838.412 1120.52 838.268 1120.8 838.212 1121.17H840.78ZM846.015 1119.59C846.255 1119.22 846.555 1118.93 846.915 1118.72C847.275 1118.51 847.675 1118.4 848.115 1118.4V1120.57H847.551C847.039 1120.57 846.655 1120.68 846.399 1120.91C846.143 1121.12 846.015 1121.51 846.015 1122.06V1125.17H843.963V1118.47H846.015V1119.59ZM852.456 1120.18H851.352V1125.17H849.3V1120.18H848.556V1118.47H849.3V1118.28C849.3 1117.46 849.536 1116.83 850.008 1116.41C850.48 1115.98 851.172 1115.76 852.084 1115.76C852.236 1115.76 852.348 1115.76 852.42 1115.77V1117.51C852.028 1117.49 851.752 1117.54 851.592 1117.68C851.432 1117.82 851.352 1118.06 851.352 1118.41V1118.47H852.456V1120.18ZM860.032 1118.47V1125.17H857.98V1124.26C857.772 1124.55 857.488 1124.79 857.128 1124.98C856.776 1125.15 856.384 1125.24 855.952 1125.24C855.44 1125.24 854.988 1125.13 854.596 1124.9C854.204 1124.67 853.9 1124.34 853.684 1123.91C853.468 1123.48 853.36 1122.97 853.36 1122.38V1118.47H855.4V1122.11C855.4 1122.56 855.516 1122.9 855.748 1123.15C855.98 1123.4 856.292 1123.52 856.684 1123.52C857.084 1123.52 857.4 1123.4 857.632 1123.15C857.864 1122.9 857.98 1122.56 857.98 1122.11V1118.47H860.032ZM863.558 1116.29V1125.17H861.506V1116.29H863.558ZM870.312 1125.26C869.728 1125.26 869.208 1125.16 868.752 1124.96C868.296 1124.76 867.936 1124.49 867.672 1124.15C867.408 1123.8 867.26 1123.4 867.228 1122.97H869.256C869.28 1123.2 869.388 1123.39 869.58 1123.54C869.772 1123.68 870.008 1123.75 870.288 1123.75C870.544 1123.75 870.74 1123.7 870.876 1123.61C871.02 1123.5 871.092 1123.37 871.092 1123.21C871.092 1123.02 870.992 1122.88 870.792 1122.79C870.592 1122.7 870.268 1122.59 869.82 1122.48C869.34 1122.37 868.94 1122.25 868.62 1122.13C868.3 1122 868.024 1121.81 867.792 1121.54C867.56 1121.27 867.444 1120.91 867.444 1120.45C867.444 1120.07 867.548 1119.72 867.756 1119.41C867.972 1119.09 868.284 1118.84 868.692 1118.65C869.108 1118.47 869.6 1118.38 870.168 1118.38C871.008 1118.38 871.668 1118.58 872.148 1119C872.636 1119.42 872.916 1119.97 872.988 1120.66H871.092C871.06 1120.42 870.956 1120.24 870.78 1120.1C870.612 1119.97 870.388 1119.9 870.108 1119.9C869.868 1119.9 869.684 1119.95 869.556 1120.04C869.428 1120.13 869.364 1120.26 869.364 1120.42C869.364 1120.61 869.464 1120.75 869.664 1120.85C869.872 1120.94 870.192 1121.04 870.624 1121.14C871.12 1121.26 871.524 1121.39 871.836 1121.52C872.148 1121.64 872.42 1121.84 872.652 1122.12C872.892 1122.39 873.016 1122.76 873.024 1123.22C873.024 1123.62 872.912 1123.97 872.688 1124.28C872.472 1124.58 872.156 1124.82 871.74 1125C871.332 1125.18 870.856 1125.26 870.312 1125.26ZM880.591 1121.71C880.591 1121.9 880.579 1122.1 880.555 1122.31H875.911C875.943 1122.73 876.075 1123.05 876.307 1123.27C876.547 1123.49 876.839 1123.6 877.183 1123.6C877.695 1123.6 878.051 1123.38 878.251 1122.95H880.435C880.323 1123.39 880.119 1123.78 879.823 1124.14C879.535 1124.49 879.171 1124.76 878.731 1124.96C878.291 1125.16 877.799 1125.26 877.255 1125.26C876.599 1125.26 876.015 1125.12 875.503 1124.84C874.991 1124.56 874.591 1124.16 874.303 1123.64C874.015 1123.12 873.871 1122.52 873.871 1121.82C873.871 1121.12 874.011 1120.52 874.291 1120C874.579 1119.48 874.979 1119.08 875.491 1118.8C876.003 1118.52 876.591 1118.38 877.255 1118.38C877.903 1118.38 878.479 1118.51 878.983 1118.78C879.487 1119.06 879.879 1119.44 880.159 1119.95C880.447 1120.45 880.591 1121.04 880.591 1121.71ZM878.491 1121.17C878.491 1120.82 878.371 1120.54 878.131 1120.33C877.891 1120.12 877.591 1120.02 877.231 1120.02C876.887 1120.02 876.595 1120.12 876.355 1120.32C876.123 1120.52 875.979 1120.8 875.923 1121.17H878.491ZM883.726 1119.59C883.966 1119.22 884.266 1118.93 884.626 1118.72C884.986 1118.51 885.386 1118.4 885.826 1118.4V1120.57H885.262C884.75 1120.57 884.366 1120.68 884.11 1120.91C883.854 1121.12 883.726 1121.51 883.726 1122.06V1125.17H881.674V1118.47H883.726V1119.59ZM889.819 1123.25L891.271 1118.47H893.455L891.079 1125.17H888.547L886.171 1118.47H888.367L889.819 1123.25ZM895.35 1117.78C894.99 1117.78 894.694 1117.67 894.462 1117.46C894.238 1117.25 894.126 1116.98 894.126 1116.67C894.126 1116.35 894.238 1116.09 894.462 1115.88C894.694 1115.66 894.99 1115.56 895.35 1115.56C895.702 1115.56 895.99 1115.66 896.214 1115.88C896.446 1116.09 896.562 1116.35 896.562 1116.67C896.562 1116.98 896.446 1117.25 896.214 1117.46C895.99 1117.67 895.702 1117.78 895.35 1117.78ZM896.37 1118.47V1125.17H894.318V1118.47H896.37ZM897.449 1121.82C897.449 1121.12 897.589 1120.52 897.869 1120C898.157 1119.48 898.553 1119.08 899.057 1118.8C899.569 1118.52 900.153 1118.38 900.809 1118.38C901.649 1118.38 902.349 1118.6 902.909 1119.04C903.477 1119.48 903.849 1120.1 904.025 1120.9H901.841C901.657 1120.38 901.301 1120.13 900.773 1120.13C900.397 1120.13 900.097 1120.28 899.873 1120.57C899.649 1120.86 899.537 1121.28 899.537 1121.82C899.537 1122.36 899.649 1122.78 899.873 1123.08C900.097 1123.37 900.397 1123.51 900.773 1123.51C901.301 1123.51 901.657 1123.26 901.841 1122.74H904.025C903.849 1123.53 903.477 1124.14 902.909 1124.59C902.341 1125.04 901.641 1125.26 900.809 1125.26C900.153 1125.26 899.569 1125.12 899.057 1124.84C898.553 1124.56 898.157 1124.16 897.869 1123.64C897.589 1123.12 897.449 1122.52 897.449 1121.82ZM911.435 1121.71C911.435 1121.9 911.423 1122.1 911.399 1122.31H906.755C906.787 1122.73 906.919 1123.05 907.151 1123.27C907.391 1123.49 907.683 1123.6 908.027 1123.6C908.539 1123.6 908.895 1123.38 909.095 1122.95H911.279C911.167 1123.39 910.963 1123.78 910.667 1124.14C910.379 1124.49 910.015 1124.76 909.575 1124.96C909.135 1125.16 908.643 1125.26 908.099 1125.26C907.443 1125.26 906.859 1125.12 906.347 1124.84C905.835 1124.56 905.435 1124.16 905.147 1123.64C904.859 1123.12 904.715 1122.52 904.715 1121.82C904.715 1121.12 904.855 1120.52 905.135 1120C905.423 1119.48 905.823 1119.08 906.335 1118.8C906.847 1118.52 907.435 1118.38 908.099 1118.38C908.747 1118.38 909.323 1118.51 909.827 1118.78C910.331 1119.06 910.723 1119.44 911.003 1119.95C911.291 1120.45 911.435 1121.04 911.435 1121.71ZM909.335 1121.17C909.335 1120.82 909.215 1120.54 908.975 1120.33C908.735 1120.12 908.435 1120.02 908.075 1120.02C907.731 1120.02 907.439 1120.12 907.199 1120.32C906.967 1120.52 906.823 1120.8 906.767 1121.17H909.335ZM806.592 1139.23C806.36 1138.74 806.024 1138.36 805.584 1138.1C805.144 1137.83 804.632 1137.69 804.048 1137.69C803.464 1137.69 802.936 1137.83 802.464 1138.1C802 1138.36 801.632 1138.75 801.36 1139.25C801.096 1139.75 800.964 1140.32 800.964 1140.98C800.964 1141.64 801.096 1142.21 801.36 1142.71C801.632 1143.2 802 1143.59 802.464 1143.86C802.936 1144.12 803.464 1144.26 804.048 1144.26C804.864 1144.26 805.536 1144.01 806.064 1143.52C806.592 1143.04 806.9 1142.38 806.988 1141.54H803.652V1140.66H808.152V1141.5C808.088 1142.18 807.872 1142.82 807.504 1143.39C807.136 1143.96 806.652 1144.41 806.052 1144.75C805.452 1145.08 804.784 1145.24 804.048 1145.24C803.272 1145.24 802.564 1145.06 801.924 1144.7C801.284 1144.33 800.776 1143.82 800.4 1143.18C800.032 1142.53 799.848 1141.8 799.848 1140.98C799.848 1140.16 800.032 1139.43 800.4 1138.78C800.776 1138.13 801.284 1137.62 801.924 1137.26C802.564 1136.89 803.272 1136.71 804.048 1136.71C804.936 1136.71 805.72 1136.93 806.4 1137.37C807.088 1137.81 807.588 1138.43 807.9 1139.23H806.592ZM812.464 1145.28C811.848 1145.28 811.288 1145.14 810.784 1144.86C810.288 1144.58 809.896 1144.18 809.608 1143.67C809.328 1143.15 809.188 1142.55 809.188 1141.87C809.188 1141.2 809.332 1140.6 809.62 1140.09C809.916 1139.57 810.316 1139.18 810.82 1138.9C811.324 1138.62 811.888 1138.48 812.512 1138.48C813.136 1138.48 813.7 1138.62 814.204 1138.9C814.708 1139.18 815.104 1139.57 815.392 1140.08C815.688 1140.59 815.836 1141.19 815.836 1141.87C815.836 1142.55 815.684 1143.15 815.38 1143.67C815.084 1144.18 814.68 1144.58 814.168 1144.86C813.656 1145.14 813.088 1145.28 812.464 1145.28ZM812.464 1144.32C812.856 1144.32 813.224 1144.22 813.568 1144.04C813.912 1143.86 814.188 1143.58 814.396 1143.21C814.612 1142.84 814.72 1142.4 814.72 1141.87C814.72 1141.34 814.616 1140.89 814.408 1140.52C814.2 1140.16 813.928 1139.88 813.592 1139.71C813.256 1139.52 812.892 1139.43 812.5 1139.43C812.1 1139.43 811.732 1139.52 811.396 1139.71C811.068 1139.88 810.804 1140.16 810.604 1140.52C810.404 1140.89 810.304 1141.34 810.304 1141.87C810.304 1142.4 810.4 1142.86 810.592 1143.22C810.792 1143.59 811.056 1143.87 811.384 1144.05C811.712 1144.23 812.072 1144.32 812.464 1144.32ZM820.14 1145.28C819.524 1145.28 818.964 1145.14 818.46 1144.86C817.964 1144.58 817.572 1144.18 817.284 1143.67C817.004 1143.15 816.864 1142.55 816.864 1141.87C816.864 1141.2 817.008 1140.6 817.296 1140.09C817.592 1139.57 817.992 1139.18 818.496 1138.9C819 1138.62 819.564 1138.48 820.188 1138.48C820.812 1138.48 821.376 1138.62 821.88 1138.9C822.384 1139.18 822.78 1139.57 823.068 1140.08C823.364 1140.59 823.512 1141.19 823.512 1141.87C823.512 1142.55 823.36 1143.15 823.056 1143.67C822.76 1144.18 822.356 1144.58 821.844 1144.86C821.332 1145.14 820.764 1145.28 820.14 1145.28ZM820.14 1144.32C820.532 1144.32 820.9 1144.22 821.244 1144.04C821.588 1143.86 821.864 1143.58 822.072 1143.21C822.288 1142.84 822.396 1142.4 822.396 1141.87C822.396 1141.34 822.292 1140.89 822.084 1140.52C821.876 1140.16 821.604 1139.88 821.268 1139.71C820.932 1139.52 820.568 1139.43 820.176 1139.43C819.776 1139.43 819.408 1139.52 819.072 1139.71C818.744 1139.88 818.48 1140.16 818.28 1140.52C818.08 1140.89 817.98 1141.34 817.98 1141.87C817.98 1142.4 818.076 1142.86 818.268 1143.22C818.468 1143.59 818.732 1143.87 819.06 1144.05C819.388 1144.23 819.748 1144.32 820.14 1144.32ZM824.539 1141.86C824.539 1141.18 824.675 1140.6 824.947 1140.09C825.219 1139.58 825.591 1139.18 826.063 1138.9C826.543 1138.62 827.079 1138.48 827.671 1138.48C828.183 1138.48 828.659 1138.6 829.099 1138.84C829.539 1139.08 829.875 1139.38 830.107 1139.77V1136.29H831.211V1145.17H830.107V1143.93C829.891 1144.32 829.571 1144.65 829.147 1144.9C828.723 1145.15 828.227 1145.28 827.659 1145.28C827.075 1145.28 826.543 1145.13 826.063 1144.84C825.591 1144.56 825.219 1144.15 824.947 1143.63C824.675 1143.11 824.539 1142.52 824.539 1141.86ZM830.107 1141.87C830.107 1141.37 830.007 1140.94 829.807 1140.57C829.607 1140.2 829.335 1139.92 828.991 1139.73C828.655 1139.53 828.283 1139.43 827.875 1139.43C827.467 1139.43 827.095 1139.53 826.759 1139.72C826.423 1139.91 826.155 1140.19 825.955 1140.56C825.755 1140.93 825.655 1141.36 825.655 1141.86C825.655 1142.36 825.755 1142.8 825.955 1143.18C826.155 1143.54 826.423 1143.83 826.759 1144.03C827.095 1144.22 827.467 1144.32 827.875 1144.32C828.283 1144.32 828.655 1144.22 828.991 1144.03C829.335 1143.83 829.607 1143.54 829.807 1143.18C830.007 1142.8 830.107 1142.36 830.107 1141.87ZM835.848 1141.86C835.848 1141.18 835.984 1140.6 836.256 1140.09C836.528 1139.58 836.9 1139.18 837.372 1138.9C837.852 1138.62 838.388 1138.48 838.98 1138.48C839.492 1138.48 839.968 1138.6 840.408 1138.84C840.848 1139.08 841.184 1139.38 841.416 1139.77V1136.29H842.52V1145.17H841.416V1143.93C841.2 1144.32 840.88 1144.65 840.456 1144.9C840.032 1145.15 839.536 1145.28 838.968 1145.28C838.384 1145.28 837.852 1145.13 837.372 1144.84C836.9 1144.56 836.528 1144.15 836.256 1143.63C835.984 1143.11 835.848 1142.52 835.848 1141.86ZM841.416 1141.87C841.416 1141.37 841.316 1140.94 841.116 1140.57C840.916 1140.2 840.644 1139.92 840.3 1139.73C839.964 1139.53 839.592 1139.43 839.184 1139.43C838.776 1139.43 838.404 1139.53 838.068 1139.72C837.732 1139.91 837.464 1140.19 837.264 1140.56C837.064 1140.93 836.964 1141.36 836.964 1141.86C836.964 1142.36 837.064 1142.8 837.264 1143.18C837.464 1143.54 837.732 1143.83 838.068 1144.03C838.404 1144.22 838.776 1144.32 839.184 1144.32C839.592 1144.32 839.964 1144.22 840.3 1144.03C840.644 1143.83 840.916 1143.54 841.116 1143.18C841.316 1142.8 841.416 1142.36 841.416 1141.87ZM850.365 1141.63C850.365 1141.84 850.353 1142.06 850.329 1142.29H845.073C845.113 1142.94 845.333 1143.44 845.733 1143.81C846.141 1144.17 846.633 1144.35 847.209 1144.35C847.681 1144.35 848.073 1144.24 848.385 1144.03C848.705 1143.8 848.929 1143.51 849.057 1143.14H850.233C850.057 1143.77 849.705 1144.29 849.177 1144.69C848.649 1145.08 847.993 1145.28 847.209 1145.28C846.585 1145.28 846.025 1145.14 845.529 1144.86C845.041 1144.58 844.657 1144.18 844.377 1143.67C844.097 1143.15 843.957 1142.55 843.957 1141.87C843.957 1141.19 844.093 1140.59 844.365 1140.08C844.637 1139.57 845.017 1139.18 845.505 1138.9C846.001 1138.62 846.569 1138.48 847.209 1138.48C847.833 1138.48 848.385 1138.62 848.865 1138.89C849.345 1139.16 849.713 1139.54 849.969 1140.02C850.233 1140.49 850.365 1141.03 850.365 1141.63ZM849.237 1141.4C849.237 1140.98 849.145 1140.63 848.961 1140.33C848.777 1140.03 848.525 1139.8 848.205 1139.65C847.893 1139.49 847.545 1139.41 847.161 1139.41C846.609 1139.41 846.137 1139.58 845.745 1139.94C845.361 1140.29 845.141 1140.78 845.085 1141.4H849.237ZM851.399 1141.86C851.399 1141.18 851.535 1140.6 851.807 1140.09C852.079 1139.58 852.451 1139.18 852.923 1138.9C853.403 1138.62 853.935 1138.48 854.519 1138.48C855.095 1138.48 855.595 1138.61 856.019 1138.86C856.443 1139.1 856.759 1139.42 856.967 1139.79V1138.59H858.071V1145.17H856.967V1143.94C856.751 1144.33 856.427 1144.65 855.995 1144.9C855.571 1145.15 855.075 1145.28 854.507 1145.28C853.923 1145.28 853.395 1145.13 852.923 1144.84C852.451 1144.56 852.079 1144.15 851.807 1143.63C851.535 1143.11 851.399 1142.52 851.399 1141.86ZM856.967 1141.87C856.967 1141.37 856.867 1140.94 856.667 1140.57C856.467 1140.2 856.195 1139.92 855.851 1139.73C855.515 1139.53 855.143 1139.43 854.735 1139.43C854.327 1139.43 853.955 1139.53 853.619 1139.72C853.283 1139.91 853.015 1140.19 852.815 1140.56C852.615 1140.93 852.515 1141.36 852.515 1141.86C852.515 1142.36 852.615 1142.8 852.815 1143.18C853.015 1143.54 853.283 1143.83 853.619 1144.03C853.955 1144.22 854.327 1144.32 854.735 1144.32C855.143 1144.32 855.515 1144.22 855.851 1144.03C856.195 1143.83 856.467 1143.54 856.667 1143.18C856.867 1142.8 856.967 1142.36 856.967 1141.87ZM861.008 1136.29V1145.17H859.916V1136.29H861.008ZM865.661 1141.86C865.661 1141.18 865.797 1140.6 866.069 1140.09C866.341 1139.58 866.713 1139.18 867.185 1138.9C867.665 1138.62 868.197 1138.48 868.781 1138.48C869.357 1138.48 869.857 1138.61 870.281 1138.86C870.705 1139.1 871.021 1139.42 871.229 1139.79V1138.59H872.333V1145.17H871.229V1143.94C871.013 1144.33 870.689 1144.65 870.257 1144.9C869.833 1145.15 869.337 1145.28 868.769 1145.28C868.185 1145.28 867.657 1145.13 867.185 1144.84C866.713 1144.56 866.341 1144.15 866.069 1143.63C865.797 1143.11 865.661 1142.52 865.661 1141.86ZM871.229 1141.87C871.229 1141.37 871.129 1140.94 870.929 1140.57C870.729 1140.2 870.457 1139.92 870.113 1139.73C869.777 1139.53 869.405 1139.43 868.997 1139.43C868.589 1139.43 868.217 1139.53 867.881 1139.72C867.545 1139.91 867.277 1140.19 867.077 1140.56C866.877 1140.93 866.777 1141.36 866.777 1141.86C866.777 1142.36 866.877 1142.8 867.077 1143.18C867.277 1143.54 867.545 1143.83 867.881 1144.03C868.217 1144.22 868.589 1144.32 868.997 1144.32C869.405 1144.32 869.777 1144.22 870.113 1144.03C870.457 1143.83 870.729 1143.54 870.929 1143.18C871.129 1142.8 871.229 1142.36 871.229 1141.87ZM877.382 1138.47C878.182 1138.47 878.83 1138.72 879.326 1139.2C879.822 1139.68 880.07 1140.38 880.07 1141.29V1145.17H878.99V1141.45C878.99 1140.79 878.826 1140.29 878.498 1139.95C878.17 1139.6 877.722 1139.42 877.154 1139.42C876.578 1139.42 876.118 1139.6 875.774 1139.96C875.438 1140.32 875.27 1140.84 875.27 1141.53V1145.17H874.178V1138.59H875.27V1139.53C875.486 1139.19 875.778 1138.93 876.146 1138.75C876.522 1138.56 876.934 1138.47 877.382 1138.47ZM881.446 1141.86C881.446 1141.18 881.582 1140.6 881.854 1140.09C882.126 1139.58 882.498 1139.18 882.97 1138.9C883.45 1138.62 883.986 1138.48 884.578 1138.48C885.09 1138.48 885.566 1138.6 886.006 1138.84C886.446 1139.08 886.782 1139.38 887.014 1139.77V1136.29H888.118V1145.17H887.014V1143.93C886.798 1144.32 886.478 1144.65 886.054 1144.9C885.63 1145.15 885.134 1145.28 884.566 1145.28C883.982 1145.28 883.45 1145.13 882.97 1144.84C882.498 1144.56 882.126 1144.15 881.854 1143.63C881.582 1143.11 881.446 1142.52 881.446 1141.86ZM887.014 1141.87C887.014 1141.37 886.914 1140.94 886.714 1140.57C886.514 1140.2 886.242 1139.92 885.898 1139.73C885.562 1139.53 885.19 1139.43 884.782 1139.43C884.374 1139.43 884.002 1139.53 883.666 1139.72C883.33 1139.91 883.062 1140.19 882.862 1140.56C882.662 1140.93 882.562 1141.36 882.562 1141.86C882.562 1142.36 882.662 1142.8 882.862 1143.18C883.062 1143.54 883.33 1143.83 883.666 1144.03C884.002 1144.22 884.374 1144.32 884.782 1144.32C885.19 1144.32 885.562 1144.22 885.898 1144.03C886.242 1143.83 886.514 1143.54 886.714 1143.18C886.914 1142.8 887.014 1142.36 887.014 1141.87ZM895.61 1144.16L897.65 1138.59H898.814L896.234 1145.17H894.962L892.382 1138.59H893.558L895.61 1144.16ZM905.889 1141.63C905.889 1141.84 905.877 1142.06 905.853 1142.29H900.597C900.637 1142.94 900.857 1143.44 901.257 1143.81C901.665 1144.17 902.157 1144.35 902.733 1144.35C903.205 1144.35 903.597 1144.24 903.909 1144.03C904.229 1143.8 904.453 1143.51 904.581 1143.14H905.757C905.581 1143.77 905.229 1144.29 904.701 1144.69C904.173 1145.08 903.517 1145.28 902.733 1145.28C902.109 1145.28 901.549 1145.14 901.053 1144.86C900.565 1144.58 900.181 1144.18 899.901 1143.67C899.621 1143.15 899.481 1142.55 899.481 1141.87C899.481 1141.19 899.617 1140.59 899.889 1140.08C900.161 1139.57 900.541 1139.18 901.029 1138.9C901.525 1138.62 902.093 1138.48 902.733 1138.48C903.357 1138.48 903.909 1138.62 904.389 1138.89C904.869 1139.16 905.237 1139.54 905.493 1140.02C905.757 1140.49 905.889 1141.03 905.889 1141.63ZM904.761 1141.4C904.761 1140.98 904.669 1140.63 904.485 1140.33C904.301 1140.03 904.049 1139.8 903.729 1139.65C903.417 1139.49 903.069 1139.41 902.685 1139.41C902.133 1139.41 901.661 1139.58 901.269 1139.94C900.885 1140.29 900.665 1140.78 900.609 1141.4H904.761ZM908.422 1139.66C908.614 1139.28 908.886 1138.99 909.238 1138.78C909.598 1138.58 910.034 1138.47 910.546 1138.47V1139.6H910.258C909.034 1139.6 908.422 1140.26 908.422 1141.59V1145.17H907.33V1138.59H908.422V1139.66ZM917.471 1138.59L913.511 1148.26H912.383L913.679 1145.1L911.027 1138.59H912.239L914.303 1143.92L916.343 1138.59H917.471ZM930.528 1138.59L928.476 1145.17H927.348L925.764 1139.95L924.18 1145.17H923.052L920.988 1138.59H922.104L923.616 1144.11L925.248 1138.59H926.364L927.96 1144.12L929.448 1138.59H930.528ZM934.48 1145.28C933.864 1145.28 933.304 1145.14 932.8 1144.86C932.304 1144.58 931.912 1144.18 931.624 1143.67C931.344 1143.15 931.204 1142.55 931.204 1141.87C931.204 1141.2 931.348 1140.6 931.636 1140.09C931.932 1139.57 932.332 1139.18 932.836 1138.9C933.34 1138.62 933.904 1138.48 934.528 1138.48C935.152 1138.48 935.716 1138.62 936.22 1138.9C936.724 1139.18 937.12 1139.57 937.408 1140.08C937.704 1140.59 937.852 1141.19 937.852 1141.87C937.852 1142.55 937.7 1143.15 937.396 1143.67C937.1 1144.18 936.696 1144.58 936.184 1144.86C935.672 1145.14 935.104 1145.28 934.48 1145.28ZM934.48 1144.32C934.872 1144.32 935.24 1144.22 935.584 1144.04C935.928 1143.86 936.204 1143.58 936.412 1143.21C936.628 1142.84 936.736 1142.4 936.736 1141.87C936.736 1141.34 936.632 1140.89 936.424 1140.52C936.216 1140.16 935.944 1139.88 935.608 1139.71C935.272 1139.52 934.908 1139.43 934.516 1139.43C934.116 1139.43 933.748 1139.52 933.412 1139.71C933.084 1139.88 932.82 1140.16 932.62 1140.52C932.42 1140.89 932.32 1141.34 932.32 1141.87C932.32 1142.4 932.416 1142.86 932.608 1143.22C932.808 1143.59 933.072 1143.87 933.4 1144.05C933.728 1144.23 934.088 1144.32 934.48 1144.32ZM942.491 1138.47C943.291 1138.47 943.939 1138.72 944.435 1139.2C944.931 1139.68 945.179 1140.38 945.179 1141.29V1145.17H944.099V1141.45C944.099 1140.79 943.935 1140.29 943.607 1139.95C943.279 1139.6 942.831 1139.42 942.263 1139.42C941.687 1139.42 941.227 1139.6 940.883 1139.96C940.547 1140.32 940.379 1140.84 940.379 1141.53V1145.17H939.287V1138.59H940.379V1139.53C940.595 1139.19 940.887 1138.93 941.255 1138.75C941.631 1138.56 942.043 1138.47 942.491 1138.47ZM946.555 1141.86C946.555 1141.18 946.691 1140.6 946.963 1140.09C947.235 1139.58 947.607 1139.18 948.079 1138.9C948.559 1138.62 949.095 1138.48 949.687 1138.48C950.199 1138.48 950.675 1138.6 951.115 1138.84C951.555 1139.08 951.891 1139.38 952.123 1139.77V1136.29H953.227V1145.17H952.123V1143.93C951.907 1144.32 951.587 1144.65 951.163 1144.9C950.739 1145.15 950.243 1145.28 949.675 1145.28C949.091 1145.28 948.559 1145.13 948.079 1144.84C947.607 1144.56 947.235 1144.15 946.963 1143.63C946.691 1143.11 946.555 1142.52 946.555 1141.86ZM952.123 1141.87C952.123 1141.37 952.023 1140.94 951.823 1140.57C951.623 1140.2 951.351 1139.92 951.007 1139.73C950.671 1139.53 950.299 1139.43 949.891 1139.43C949.483 1139.43 949.111 1139.53 948.775 1139.72C948.439 1139.91 948.171 1140.19 947.971 1140.56C947.771 1140.93 947.671 1141.36 947.671 1141.86C947.671 1142.36 947.771 1142.8 947.971 1143.18C948.171 1143.54 948.439 1143.83 948.775 1144.03C949.111 1144.22 949.483 1144.32 949.891 1144.32C950.299 1144.32 950.671 1144.22 951.007 1144.03C951.351 1143.83 951.623 1143.54 951.823 1143.18C952.023 1142.8 952.123 1142.36 952.123 1141.87ZM961.072 1141.63C961.072 1141.84 961.06 1142.06 961.036 1142.29H955.78C955.82 1142.94 956.04 1143.44 956.44 1143.81C956.848 1144.17 957.34 1144.35 957.916 1144.35C958.388 1144.35 958.78 1144.24 959.092 1144.03C959.412 1143.8 959.636 1143.51 959.764 1143.14H960.94C960.764 1143.77 960.412 1144.29 959.884 1144.69C959.356 1145.08 958.7 1145.28 957.916 1145.28C957.292 1145.28 956.732 1145.14 956.236 1144.86C955.748 1144.58 955.364 1144.18 955.084 1143.67C954.804 1143.15 954.664 1142.55 954.664 1141.87C954.664 1141.19 954.8 1140.59 955.072 1140.08C955.344 1139.57 955.724 1139.18 956.212 1138.9C956.708 1138.62 957.276 1138.48 957.916 1138.48C958.54 1138.48 959.092 1138.62 959.572 1138.89C960.052 1139.16 960.42 1139.54 960.676 1140.02C960.94 1140.49 961.072 1141.03 961.072 1141.63ZM959.944 1141.4C959.944 1140.98 959.852 1140.63 959.668 1140.33C959.484 1140.03 959.232 1139.8 958.912 1139.65C958.6 1139.49 958.252 1139.41 957.868 1139.41C957.316 1139.41 956.844 1139.58 956.452 1139.94C956.068 1140.29 955.848 1140.78 955.792 1141.4H959.944ZM963.606 1139.66C963.798 1139.28 964.07 1138.99 964.422 1138.78C964.782 1138.58 965.218 1138.47 965.73 1138.47V1139.6H965.442C964.218 1139.6 963.606 1140.26 963.606 1141.59V1145.17H962.514V1138.59H963.606V1139.66ZM969.666 1139.49H968.286V1145.17H967.194V1139.49H966.342V1138.59H967.194V1138.12C967.194 1137.39 967.382 1136.85 967.758 1136.52C968.142 1136.17 968.754 1136 969.594 1136V1136.91C969.114 1136.91 968.774 1137.01 968.574 1137.2C968.382 1137.38 968.286 1137.69 968.286 1138.12V1138.59H969.666V1139.49ZM976.772 1138.59V1145.17H975.68V1144.2C975.472 1144.53 975.18 1144.8 974.804 1144.99C974.436 1145.17 974.028 1145.26 973.58 1145.26C973.068 1145.26 972.608 1145.16 972.2 1144.95C971.792 1144.74 971.468 1144.42 971.228 1143.99C970.996 1143.57 970.88 1143.05 970.88 1142.44V1138.59H971.96V1142.3C971.96 1142.95 972.124 1143.45 972.452 1143.8C972.78 1144.14 973.228 1144.32 973.796 1144.32C974.38 1144.32 974.84 1144.14 975.176 1143.78C975.512 1143.42 975.68 1142.89 975.68 1142.2V1138.59H976.772ZM979.707 1136.29V1145.17H978.615V1136.29H979.707ZM987.096 1145.28C986.592 1145.28 986.14 1145.19 985.74 1145.02C985.34 1144.85 985.024 1144.61 984.792 1144.3C984.56 1143.99 984.432 1143.64 984.408 1143.24H985.536C985.568 1143.56 985.72 1143.83 985.992 1144.04C986.272 1144.25 986.636 1144.35 987.084 1144.35C987.5 1144.35 987.828 1144.26 988.068 1144.08C988.308 1143.89 988.428 1143.66 988.428 1143.38C988.428 1143.09 988.3 1142.88 988.044 1142.74C987.788 1142.6 987.392 1142.46 986.856 1142.32C986.368 1142.2 985.968 1142.07 985.656 1141.94C985.352 1141.8 985.088 1141.61 984.864 1141.35C984.648 1141.09 984.54 1140.74 984.54 1140.32C984.54 1139.98 984.64 1139.68 984.84 1139.4C985.04 1139.12 985.324 1138.9 985.692 1138.74C986.06 1138.57 986.48 1138.48 986.952 1138.48C987.68 1138.48 988.268 1138.67 988.716 1139.04C989.164 1139.4 989.404 1139.91 989.436 1140.55H988.344C988.32 1140.2 988.18 1139.93 987.924 1139.72C987.676 1139.51 987.34 1139.41 986.916 1139.41C986.524 1139.41 986.212 1139.49 985.98 1139.66C985.748 1139.83 985.632 1140.05 985.632 1140.32C985.632 1140.54 985.7 1140.72 985.836 1140.86C985.98 1141 986.156 1141.11 986.364 1141.2C986.58 1141.28 986.876 1141.37 987.252 1141.47C987.724 1141.6 988.108 1141.73 988.404 1141.86C988.7 1141.98 988.952 1142.16 989.16 1142.41C989.376 1142.66 989.488 1142.98 989.496 1143.38C989.496 1143.74 989.396 1144.06 989.196 1144.35C988.996 1144.64 988.712 1144.87 988.344 1145.04C987.984 1145.2 987.568 1145.28 987.096 1145.28ZM997.037 1141.63C997.037 1141.84 997.025 1142.06 997.001 1142.29H991.745C991.785 1142.94 992.005 1143.44 992.405 1143.81C992.813 1144.17 993.305 1144.35 993.881 1144.35C994.353 1144.35 994.745 1144.24 995.057 1144.03C995.377 1143.8 995.601 1143.51 995.729 1143.14H996.905C996.729 1143.77 996.377 1144.29 995.849 1144.69C995.321 1145.08 994.665 1145.28 993.881 1145.28C993.257 1145.28 992.697 1145.14 992.201 1144.86C991.713 1144.58 991.329 1144.18 991.049 1143.67C990.769 1143.15 990.629 1142.55 990.629 1141.87C990.629 1141.19 990.765 1140.59 991.037 1140.08C991.309 1139.57 991.689 1139.18 992.177 1138.9C992.673 1138.62 993.241 1138.48 993.881 1138.48C994.505 1138.48 995.057 1138.62 995.537 1138.89C996.017 1139.16 996.385 1139.54 996.641 1140.02C996.905 1140.49 997.037 1141.03 997.037 1141.63ZM995.909 1141.4C995.909 1140.98 995.817 1140.63 995.633 1140.33C995.449 1140.03 995.197 1139.8 994.877 1139.65C994.565 1139.49 994.217 1139.41 993.833 1139.41C993.281 1139.41 992.809 1139.58 992.417 1139.94C992.033 1140.29 991.813 1140.78 991.757 1141.4H995.909ZM999.571 1139.66C999.763 1139.28 1000.03 1138.99 1000.39 1138.78C1000.75 1138.58 1001.18 1138.47 1001.69 1138.47V1139.6H1001.41C1000.18 1139.6 999.571 1140.26 999.571 1141.59V1145.17H998.479V1138.59H999.571V1139.66ZM1005.4 1144.16L1007.44 1138.59H1008.61L1006.03 1145.17H1004.76L1002.18 1138.59H1003.35L1005.4 1144.16ZM1010.25 1137.52C1010.04 1137.52 1009.86 1137.45 1009.72 1137.31C1009.57 1137.16 1009.5 1136.99 1009.5 1136.78C1009.5 1136.57 1009.57 1136.4 1009.72 1136.25C1009.86 1136.11 1010.04 1136.04 1010.25 1136.04C1010.45 1136.04 1010.61 1136.11 1010.75 1136.25C1010.89 1136.4 1010.97 1136.57 1010.97 1136.78C1010.97 1136.99 1010.89 1137.16 1010.75 1137.31C1010.61 1137.45 1010.45 1137.52 1010.25 1137.52ZM1010.77 1138.59V1145.17H1009.68V1138.59H1010.77ZM1012.23 1141.87C1012.23 1141.19 1012.36 1140.6 1012.63 1140.09C1012.91 1139.58 1013.28 1139.18 1013.76 1138.9C1014.25 1138.62 1014.81 1138.48 1015.43 1138.48C1016.24 1138.48 1016.9 1138.68 1017.42 1139.07C1017.95 1139.46 1018.3 1140.01 1018.47 1140.7H1017.29C1017.18 1140.3 1016.96 1139.99 1016.63 1139.76C1016.31 1139.52 1015.91 1139.41 1015.43 1139.41C1014.81 1139.41 1014.3 1139.62 1013.92 1140.06C1013.53 1140.48 1013.34 1141.08 1013.34 1141.87C1013.34 1142.66 1013.53 1143.27 1013.92 1143.7C1014.3 1144.14 1014.81 1144.35 1015.43 1144.35C1015.91 1144.35 1016.31 1144.24 1016.63 1144.02C1016.95 1143.79 1017.17 1143.47 1017.29 1143.06H1018.47C1018.29 1143.73 1017.94 1144.27 1017.41 1144.68C1016.88 1145.08 1016.22 1145.28 1015.43 1145.28C1014.81 1145.28 1014.25 1145.14 1013.76 1144.86C1013.28 1144.58 1012.91 1144.18 1012.63 1143.67C1012.36 1143.16 1012.23 1142.56 1012.23 1141.87ZM1025.92 1141.63C1025.92 1141.84 1025.91 1142.06 1025.89 1142.29H1020.63C1020.67 1142.94 1020.89 1143.44 1021.29 1143.81C1021.7 1144.17 1022.19 1144.35 1022.77 1144.35C1023.24 1144.35 1023.63 1144.24 1023.94 1144.03C1024.26 1143.8 1024.49 1143.51 1024.62 1143.14H1025.79C1025.62 1143.77 1025.26 1144.29 1024.74 1144.69C1024.21 1145.08 1023.55 1145.28 1022.77 1145.28C1022.14 1145.28 1021.58 1145.14 1021.09 1144.86C1020.6 1144.58 1020.22 1144.18 1019.94 1143.67C1019.66 1143.15 1019.52 1142.55 1019.52 1141.87C1019.52 1141.19 1019.65 1140.59 1019.92 1140.08C1020.2 1139.57 1020.58 1139.18 1021.06 1138.9C1021.56 1138.62 1022.13 1138.48 1022.77 1138.48C1023.39 1138.48 1023.94 1138.62 1024.42 1138.89C1024.9 1139.16 1025.27 1139.54 1025.53 1140.02C1025.79 1140.49 1025.92 1141.03 1025.92 1141.63ZM1024.8 1141.4C1024.8 1140.98 1024.7 1140.63 1024.52 1140.33C1024.34 1140.03 1024.08 1139.8 1023.76 1139.65C1023.45 1139.49 1023.1 1139.41 1022.72 1139.41C1022.17 1139.41 1021.7 1139.58 1021.3 1139.94C1020.92 1140.29 1020.7 1140.78 1020.64 1141.4H1024.8ZM1031.9 1139.49V1143.37C1031.9 1143.69 1031.96 1143.92 1032.1 1144.05C1032.24 1144.18 1032.47 1144.24 1032.81 1144.24H1033.61V1145.17H1032.63C1032.02 1145.17 1031.56 1145.03 1031.26 1144.75C1030.96 1144.47 1030.8 1144.01 1030.8 1143.37V1139.49H1029.95V1138.59H1030.8V1136.94H1031.9V1138.59H1033.61V1139.49H1031.9ZM1038.2 1138.47C1038.7 1138.47 1039.14 1138.58 1039.54 1138.8C1039.94 1139 1040.26 1139.32 1040.48 1139.74C1040.71 1140.17 1040.83 1140.68 1040.83 1141.29V1145.17H1039.75V1141.45C1039.75 1140.79 1039.58 1140.29 1039.26 1139.95C1038.93 1139.6 1038.48 1139.42 1037.91 1139.42C1037.34 1139.42 1036.88 1139.6 1036.53 1139.96C1036.2 1140.32 1036.03 1140.84 1036.03 1141.53V1145.17H1034.94V1136.29H1036.03V1139.53C1036.24 1139.19 1036.54 1138.93 1036.92 1138.75C1037.3 1138.56 1037.73 1138.47 1038.2 1138.47ZM1042.2 1141.86C1042.2 1141.18 1042.34 1140.6 1042.61 1140.09C1042.88 1139.58 1043.26 1139.18 1043.73 1138.9C1044.21 1138.62 1044.74 1138.48 1045.32 1138.48C1045.9 1138.48 1046.4 1138.61 1046.82 1138.86C1047.25 1139.1 1047.56 1139.42 1047.77 1139.79V1138.59H1048.88V1145.17H1047.77V1143.94C1047.56 1144.33 1047.23 1144.65 1046.8 1144.9C1046.38 1145.15 1045.88 1145.28 1045.31 1145.28C1044.73 1145.28 1044.2 1145.13 1043.73 1144.84C1043.26 1144.56 1042.88 1144.15 1042.61 1143.63C1042.34 1143.11 1042.2 1142.52 1042.2 1141.86ZM1047.77 1141.87C1047.77 1141.37 1047.67 1140.94 1047.47 1140.57C1047.27 1140.2 1047 1139.92 1046.66 1139.73C1046.32 1139.53 1045.95 1139.43 1045.54 1139.43C1045.13 1139.43 1044.76 1139.53 1044.42 1139.72C1044.09 1139.91 1043.82 1140.19 1043.62 1140.56C1043.42 1140.93 1043.32 1141.36 1043.32 1141.86C1043.32 1142.36 1043.42 1142.8 1043.62 1143.18C1043.82 1143.54 1044.09 1143.83 1044.42 1144.03C1044.76 1144.22 1045.13 1144.32 1045.54 1144.32C1045.95 1144.32 1046.32 1144.22 1046.66 1144.03C1047 1143.83 1047.27 1143.54 1047.47 1143.18C1047.67 1142.8 1047.77 1142.36 1047.77 1141.87ZM1053.92 1138.47C1054.72 1138.47 1055.37 1138.72 1055.87 1139.2C1056.36 1139.68 1056.61 1140.38 1056.61 1141.29V1145.17H1055.53V1141.45C1055.53 1140.79 1055.37 1140.29 1055.04 1139.95C1054.71 1139.6 1054.26 1139.42 1053.7 1139.42C1053.12 1139.42 1052.66 1139.6 1052.32 1139.96C1051.98 1140.32 1051.81 1140.84 1051.81 1141.53V1145.17H1050.72V1138.59H1051.81V1139.53C1052.03 1139.19 1052.32 1138.93 1052.69 1138.75C1053.06 1138.56 1053.48 1138.47 1053.92 1138.47ZM1062.07 1145.17L1059.49 1142.26V1145.17H1058.4V1136.29H1059.49V1141.51L1062.02 1138.59H1063.54L1060.45 1141.87L1063.56 1145.17H1062.07ZM1073.44 1138.59L1069.48 1148.26H1068.35L1069.64 1145.1L1066.99 1138.59H1068.2L1070.27 1143.92L1072.31 1138.59H1073.44ZM1077.4 1145.28C1076.79 1145.28 1076.23 1145.14 1075.72 1144.86C1075.23 1144.58 1074.83 1144.18 1074.55 1143.67C1074.27 1143.15 1074.13 1142.55 1074.13 1141.87C1074.13 1141.2 1074.27 1140.6 1074.56 1140.09C1074.85 1139.57 1075.25 1139.18 1075.76 1138.9C1076.26 1138.62 1076.83 1138.48 1077.45 1138.48C1078.07 1138.48 1078.64 1138.62 1079.14 1138.9C1079.65 1139.18 1080.04 1139.57 1080.33 1140.08C1080.63 1140.59 1080.77 1141.19 1080.77 1141.87C1080.77 1142.55 1080.62 1143.15 1080.32 1143.67C1080.02 1144.18 1079.62 1144.58 1079.11 1144.86C1078.59 1145.14 1078.03 1145.28 1077.4 1145.28ZM1077.4 1144.32C1077.79 1144.32 1078.16 1144.22 1078.51 1144.04C1078.85 1143.86 1079.13 1143.58 1079.33 1143.21C1079.55 1142.84 1079.66 1142.4 1079.66 1141.87C1079.66 1141.34 1079.55 1140.89 1079.35 1140.52C1079.14 1140.16 1078.87 1139.88 1078.53 1139.71C1078.19 1139.52 1077.83 1139.43 1077.44 1139.43C1077.04 1139.43 1076.67 1139.52 1076.33 1139.71C1076.01 1139.88 1075.74 1140.16 1075.54 1140.52C1075.34 1140.89 1075.24 1141.34 1075.24 1141.87C1075.24 1142.4 1075.34 1142.86 1075.53 1143.22C1075.73 1143.59 1075.99 1143.87 1076.32 1144.05C1076.65 1144.23 1077.01 1144.32 1077.4 1144.32ZM1088.04 1138.59V1145.17H1086.95V1144.2C1086.74 1144.53 1086.45 1144.8 1086.07 1144.99C1085.71 1145.17 1085.3 1145.26 1084.85 1145.26C1084.34 1145.26 1083.88 1145.16 1083.47 1144.95C1083.06 1144.74 1082.74 1144.42 1082.5 1143.99C1082.27 1143.57 1082.15 1143.05 1082.15 1142.44V1138.59H1083.23V1142.3C1083.23 1142.95 1083.39 1143.45 1083.72 1143.8C1084.05 1144.14 1084.5 1144.32 1085.07 1144.32C1085.65 1144.32 1086.11 1144.14 1086.45 1143.78C1086.78 1143.42 1086.95 1142.89 1086.95 1142.2V1138.59H1088.04ZM1090.23 1145.24C1090.02 1145.24 1089.85 1145.17 1089.7 1145.02C1089.56 1144.88 1089.49 1144.7 1089.49 1144.5C1089.49 1144.29 1089.56 1144.11 1089.7 1143.97C1089.85 1143.82 1090.02 1143.75 1090.23 1143.75C1090.43 1143.75 1090.6 1143.82 1090.74 1143.97C1090.88 1144.11 1090.95 1144.29 1090.95 1144.5C1090.95 1144.7 1090.88 1144.88 1090.74 1145.02C1090.6 1145.17 1090.43 1145.24 1090.23 1145.24Z" fill="#333333"/>
<path d="M804.746 1103.94L802.546 1104.84C802.046 1105.04 801.446 1104.84 801.246 1104.34C801.146 1104.14 801.146 1104.04 801.146 1103.84L801.346 1101.44C801.346 1101.14 801.246 1100.94 801.146 1100.74L799.546 1098.94C799.246 1098.54 799.246 1097.84 799.646 1097.54C799.846 1097.44 799.946 1097.34 800.146 1097.34L802.446 1096.84C802.746 1096.74 802.946 1096.64 803.046 1096.34L804.246 1094.34C804.546 1093.84 805.146 1093.74 805.646 1094.04C805.746 1094.14 805.946 1094.24 805.946 1094.34L807.146 1096.34C807.246 1096.54 807.546 1096.74 807.746 1096.84L810.146 1097.34C810.646 1097.44 811.046 1098.04 810.846 1098.54C810.846 1098.74 810.746 1098.84 810.646 1098.94L809.146 1100.74C808.946 1100.94 808.846 1101.24 808.946 1101.44L809.146 1103.84C809.146 1104.44 808.746 1104.84 808.246 1104.94C808.046 1104.94 807.946 1104.94 807.746 1104.84L805.546 1103.94C805.246 1103.84 805.046 1103.84 804.746 1103.94Z" fill="url(#paint5_linear_634_3)"/>
<path d="M821.062 1103.94L818.862 1104.84C818.362 1105.04 817.762 1104.84 817.562 1104.34C817.462 1104.14 817.462 1104.04 817.462 1103.84L817.662 1101.44C817.662 1101.14 817.562 1100.94 817.462 1100.74L815.862 1098.94C815.562 1098.54 815.562 1097.84 815.962 1097.54C816.162 1097.44 816.262 1097.34 816.462 1097.34L818.762 1096.84C819.062 1096.74 819.262 1096.64 819.362 1096.34L820.562 1094.34C820.862 1093.84 821.462 1093.74 821.962 1094.04C822.062 1094.14 822.262 1094.24 822.262 1094.34L823.462 1096.34C823.562 1096.54 823.862 1096.74 824.062 1096.84L826.462 1097.34C826.962 1097.44 827.362 1098.04 827.162 1098.54C827.162 1098.74 827.062 1098.84 826.962 1098.94L825.462 1100.74C825.262 1100.94 825.162 1101.24 825.262 1101.44L825.462 1103.84C825.462 1104.44 825.062 1104.84 824.562 1104.94C824.362 1104.94 824.262 1104.94 824.062 1104.84L821.862 1103.94C821.562 1103.84 821.362 1103.84 821.062 1103.94Z" fill="url(#paint6_linear_634_3)"/>
<path d="M837.379 1103.94L835.179 1104.84C834.679 1105.04 834.079 1104.84 833.879 1104.34C833.779 1104.14 833.779 1104.04 833.779 1103.84L833.979 1101.44C833.979 1101.14 833.879 1100.94 833.779 1100.74L832.179 1098.94C831.879 1098.54 831.879 1097.84 832.279 1097.54C832.479 1097.44 832.579 1097.34 832.779 1097.34L835.079 1096.84C835.379 1096.74 835.579 1096.64 835.679 1096.34L836.879 1094.34C837.179 1093.84 837.779 1093.74 838.279 1094.04C838.379 1094.14 838.579 1094.24 838.579 1094.34L839.779 1096.34C839.879 1096.54 840.179 1096.74 840.379 1096.84L842.779 1097.34C843.279 1097.44 843.679 1098.04 843.479 1098.54C843.479 1098.74 843.379 1098.84 843.279 1098.94L841.779 1100.74C841.579 1100.94 841.479 1101.24 841.579 1101.44L841.779 1103.84C841.779 1104.44 841.379 1104.84 840.879 1104.94C840.679 1104.94 840.579 1104.94 840.379 1104.84L838.179 1103.94C837.879 1103.84 837.679 1103.84 837.379 1103.94Z" fill="url(#paint7_linear_634_3)"/>
<path d="M853.695 1103.94L851.495 1104.84C850.995 1105.04 850.395 1104.84 850.195 1104.34C850.095 1104.14 850.095 1104.04 850.095 1103.84L850.295 1101.44C850.295 1101.14 850.195 1100.94 850.095 1100.74L848.495 1098.94C848.195 1098.54 848.195 1097.84 848.595 1097.54C848.795 1097.44 848.895 1097.34 849.095 1097.34L851.395 1096.84C851.695 1096.74 851.895 1096.64 851.995 1096.34L853.195 1094.34C853.495 1093.84 854.095 1093.74 854.595 1094.04C854.695 1094.14 854.895 1094.24 854.895 1094.34L856.095 1096.34C856.195 1096.54 856.495 1096.74 856.695 1096.84L859.095 1097.34C859.595 1097.44 859.995 1098.04 859.795 1098.54C859.795 1098.74 859.695 1098.84 859.595 1098.94L858.095 1100.74C857.895 1100.94 857.795 1101.24 857.895 1101.44L858.095 1103.84C858.095 1104.44 857.695 1104.84 857.195 1104.94C856.995 1104.94 856.895 1104.94 856.695 1104.84L854.495 1103.94C854.195 1103.84 853.995 1103.84 853.695 1103.94Z" fill="url(#paint8_linear_634_3)"/>
<path d="M870.012 1103.94L867.811 1104.84C867.311 1105.04 866.712 1104.84 866.512 1104.34C866.412 1104.14 866.412 1104.04 866.412 1103.84L866.611 1101.44C866.611 1101.14 866.512 1100.94 866.412 1100.74L864.812 1098.94C864.512 1098.54 864.512 1097.84 864.912 1097.54C865.112 1097.44 865.212 1097.34 865.412 1097.34L867.712 1096.84C868.012 1096.74 868.211 1096.64 868.311 1096.34L869.512 1094.34C869.812 1093.84 870.411 1093.74 870.911 1094.04C871.011 1094.14 871.212 1094.24 871.212 1094.34L872.411 1096.34C872.511 1096.54 872.812 1096.74 873.012 1096.84L875.411 1097.34C875.911 1097.44 876.312 1098.04 876.112 1098.54C876.112 1098.74 876.012 1098.84 875.911 1098.94L874.411 1100.74C874.212 1100.94 874.111 1101.24 874.211 1101.44L874.411 1103.84C874.411 1104.44 874.012 1104.84 873.512 1104.94C873.312 1104.94 873.212 1104.94 873.012 1104.84L870.811 1103.94C870.511 1103.84 870.312 1103.84 870.012 1103.94Z" fill="url(#paint9_linear_634_3)"/>
<defs>
<linearGradient id="paint0_linear_634_3" x1="824.832" y1="-179.058" x2="900.186" y2="2328.49" gradientUnits="userSpaceOnUse">
<stop stop-color="#FD749B"/>
<stop offset="1" stop-color="#281AC8"/>
</linearGradient>
<linearGradient id="paint1_linear_634_3" x1="230.931" y1="450.401" x2="224.712" y2="682.293" gradientUnits="userSpaceOnUse">
<stop stop-color="#FD749B"/>
<stop offset="1" stop-color="#281AC8"/>
</linearGradient>
<linearGradient id="paint2_linear_634_3" x1="1324.07" y1="1170.9" x2="1320.42" y2="1307.11" gradientUnits="userSpaceOnUse">
<stop stop-color="#FD749B"/>
<stop offset="1" stop-color="#281AC8"/>
</linearGradient>
<linearGradient id="paint3_linear_634_3" x1="1154.2" y1="1065.91" x2="1155.55" y2="1108.42" gradientUnits="userSpaceOnUse">
<stop stop-color="#FD749B"/>
<stop offset="1" stop-color="#281AC8"/>
</linearGradient>
<linearGradient id="paint4_linear_634_3" x1="1153.52" y1="1072.5" x2="1154.61" y2="1097.01" gradientUnits="userSpaceOnUse">
<stop stop-color="#FD749B"/>
<stop offset="1" stop-color="#281AC8"/>
</linearGradient>
<linearGradient id="paint5_linear_634_3" x1="805.694" y1="1092.13" x2="806.291" y2="1111.74" gradientUnits="userSpaceOnUse">
<stop stop-color="#FD749B"/>
<stop offset="1" stop-color="#281AC8"/>
</linearGradient>
<linearGradient id="paint6_linear_634_3" x1="822.01" y1="1092.13" x2="822.608" y2="1111.74" gradientUnits="userSpaceOnUse">
<stop stop-color="#FD749B"/>
<stop offset="1" stop-color="#281AC8"/>
</linearGradient>
<linearGradient id="paint7_linear_634_3" x1="838.326" y1="1092.13" x2="838.924" y2="1111.74" gradientUnits="userSpaceOnUse">
<stop stop-color="#FD749B"/>
<stop offset="1" stop-color="#281AC8"/>
</linearGradient>
<linearGradient id="paint8_linear_634_3" x1="854.643" y1="1092.13" x2="855.24" y2="1111.74" gradientUnits="userSpaceOnUse">
<stop stop-color="#FD749B"/>
<stop offset="1" stop-color="#281AC8"/>
</linearGradient>
<linearGradient id="paint9_linear_634_3" x1="870.959" y1="1092.13" x2="871.557" y2="1111.74" gradientUnits="userSpaceOnUse">
<stop stop-color="#FD749B"/>
<stop offset="1" stop-color="#281AC8"/>
</linearGradient>
</defs>
</svg>
