<svg width="106" height="13" viewBox="0 0 106 13" fill="none" xmlns="http://www.w3.org/2000/svg">
<path opacity="0.8" fill-rule="evenodd" clip-rule="evenodd" d="M104.574 0H95.4264C94.6386 0 94 0.690014 94 1.54172V11.4583C94 12.3096 94.6386 13 95.4264 13H104.574C105.361 13 106 12.3096 106 11.4583V1.54172C106 0.690014 105.361 0 104.574 0ZM102.625 2.03104C102.625 1.80694 102.793 1.62504 103 1.62504H104.125C104.332 1.62504 104.5 1.80694 104.5 2.03104V3.25009C104.5 3.47418 104.332 3.65608 104.125 3.65608H103C102.793 3.65608 102.625 3.47418 102.625 3.25009V2.03104ZM100.014 4.02095C101.288 4.02095 102.322 5.13788 102.322 6.51507C102.322 7.89262 101.288 9.00919 100.014 9.00919C98.7397 9.00919 97.7064 7.89262 97.7064 6.51507C97.7064 5.13788 98.7397 4.02095 100.014 4.02095ZM104.875 11.375C104.875 11.5991 104.707 11.7813 104.5 11.7813H95.5C95.2929 11.7813 95.1249 11.5991 95.1249 11.375V5.28113H96.625C96.4296 5.58571 96.3635 6.15411 96.3635 6.51507C96.3635 8.69042 98.0013 10.4605 100.014 10.4605C102.027 10.4605 103.665 8.69042 103.665 6.51507C103.665 6.15411 103.617 5.59458 103.375 5.28113H104.875V11.375Z" fill="white"/>
<path opacity="0.8" fill-rule="evenodd" clip-rule="evenodd" d="M74.6414 1.20336C74.1257 1.52126 73.5557 1.75246 72.9465 1.87617C72.4613 1.33693 71.7678 1 71 1C69.5283 1 68.3339 2.24341 68.3339 3.77687C68.3339 3.99468 68.3568 4.20579 68.4026 4.40915C66.186 4.2932 64.2211 3.189 62.9049 1.50681C62.6751 1.91846 62.5439 2.39601 62.5439 2.90458C62.5439 3.86745 63.0146 4.71754 63.7306 5.21553C63.294 5.20214 62.882 5.07597 62.5217 4.86944V4.90327C62.5217 6.24924 63.4412 7.37211 64.6623 7.62622C64.4387 7.69142 64.2027 7.7242 63.9594 7.7242C63.7876 7.7242 63.6199 7.70728 63.4575 7.67486C63.7969 8.77764 64.7813 9.58085 65.9486 9.60235C65.0361 10.3474 63.8855 10.7915 62.6362 10.7915C62.421 10.7915 62.2083 10.7788 62 10.7534C63.1801 11.5401 64.5828 12 66.0885 12C70.9948 12 73.6768 7.76931 73.6768 4.09936C73.6768 3.97847 73.6748 3.85793 73.6703 3.73951C74.1913 3.34795 74.6439 2.85912 75 2.30227C74.5224 2.52289 74.008 2.67233 73.4686 2.73929C74.0194 2.39601 74.4422 1.85185 74.6414 1.20336Z" fill="white"/>
<path opacity="0.8" fill-rule="evenodd" clip-rule="evenodd" d="M44 12.2822C44 12.6785 43.7035 13 43.3377 13H40.2798V7.96565H41.8397L42.0734 6.0039H40.2798V4.75106C40.2798 4.18307 40.4256 3.79603 41.1774 3.79603L42.1365 3.79568V2.04072C41.9704 2.017 41.4013 1.96353 40.7391 1.96353C39.3564 1.96353 38.4097 2.87783 38.4097 4.55701V6.0039H36.846V7.96565H38.4097V13H32.6623C32.2965 13 32 12.6785 32 12.2822V0.717776C32 0.321176 32.2965 0 32.6623 0H43.3377C43.7035 0 44 0.321176 44 0.717776V12.2822Z" fill="white"/>
<path opacity="0.8" fill-rule="evenodd" clip-rule="evenodd" d="M4.44671 7.3911V5.6089H8.71717C9.0145 7.76541 8.11731 11 4.44671 11C1.99108 11 0 8.98508 0 6.49982C0 4.01456 1.99108 2 4.44671 2C5.59889 2 6.64873 2.44336 7.4387 3.17096C6.82677 3.75594 6.63048 3.97911 6.46379 4.16861C6.37702 4.26727 6.29826 4.3568 6.17307 4.48351C5.71616 4.10113 5.21795 3.82671 4.44671 3.82671C2.98783 3.82671 1.84918 5.0236 1.84918 6.49982C1.84918 7.9764 2.98783 9.17329 4.44671 9.17329C5.88824 9.17329 6.47387 8.54418 6.85064 7.38864C6.15503 7.38864 4.44671 7.3911 4.44671 7.3911ZM12.4592 4.13863V5.69792H14V6.81175H12.4592V8.4159H11.3588V6.81175H9.7736V5.69792H11.3588V4.13863H12.4592Z" fill="white"/>
</svg>
