<svg width="1067" height="389" viewBox="0 0 1067 389" fill="none" xmlns="http://www.w3.org/2000/svg">
<path d="M810.066 164.604C833.37 164.604 852.262 145.712 852.262 122.408C852.262 99.1044 833.37 80.2129 810.066 80.2129C786.763 80.2129 767.871 99.1044 767.871 122.408C767.871 145.712 786.763 164.604 810.066 164.604Z" fill="#D8D8D8"/>
<path d="M157.501 218.079C195.572 218.079 226.434 187.217 226.434 149.146C226.434 111.075 195.572 80.2129 157.501 80.2129C119.431 80.2129 88.5684 111.075 88.5684 149.146C88.5684 187.217 119.431 218.079 157.501 218.079Z" fill="#D8D8D8"/>
<path d="M484.203 302.47C507.507 302.47 526.399 283.578 526.399 260.274C526.399 236.971 507.507 218.079 484.203 218.079C460.899 218.079 442.008 236.971 442.008 260.274C442.008 283.578 460.899 302.47 484.203 302.47Z" fill="#D8D8D8"/>
<path d="M42.1954 313.332C65.4992 313.332 84.3908 294.441 84.3908 271.137C84.3908 247.833 65.4992 228.941 42.1954 228.941C18.8915 228.941 0 247.833 0 271.137C0 294.441 18.8915 313.332 42.1954 313.332Z" fill="#D8D8D8"/>
<path d="M924.539 267.377C947.843 267.377 966.735 248.486 966.735 225.182C966.735 201.878 947.843 182.986 924.539 182.986C901.235 182.986 882.344 201.878 882.344 225.182C882.344 248.486 901.235 267.377 924.539 267.377Z" fill="#D8D8D8"/>
<path d="M821.766 388.531C845.07 388.531 863.961 369.64 863.961 346.336C863.961 323.032 845.07 304.141 821.766 304.141C798.462 304.141 779.57 323.032 779.57 346.336C779.57 369.64 798.462 388.531 821.766 388.531Z" fill="#D8D8D8"/>
<path d="M1024.8 84.3908C1048.11 84.3908 1067 65.4992 1067 42.1954C1067 18.8915 1048.11 0 1024.8 0C1001.5 0 982.609 18.8915 982.609 42.1954C982.609 65.4992 1001.5 84.3908 1024.8 84.3908Z" fill="#D8D8D8"/>
<path d="M661.34 233.119C684.644 233.119 703.535 214.228 703.535 190.924C703.535 167.62 684.644 148.729 661.34 148.729C638.036 148.729 619.145 167.62 619.145 190.924C619.145 214.228 638.036 233.119 661.34 233.119Z" fill="#D8D8D8"/>
<path d="M308.32 167.111C327.24 167.111 342.578 151.773 342.578 132.853C342.578 113.933 327.24 98.5957 308.32 98.5957C289.4 98.5957 274.062 113.933 274.062 132.853C274.062 151.773 289.4 167.111 308.32 167.111Z" fill="#D8D8D8"/>
<path d="M767.872 251.501C780.332 251.501 790.432 241.4 790.432 228.941C790.432 216.481 780.332 206.381 767.872 206.381C755.413 206.381 745.312 216.481 745.312 228.941C745.312 241.4 755.413 251.501 767.872 251.501Z" fill="#D8D8D8"/>
<path d="M505.508 172.124C523.505 172.124 538.095 157.535 538.095 139.538C538.095 121.541 523.505 106.951 505.508 106.951C487.511 106.951 472.922 121.541 472.922 139.538C472.922 157.535 487.511 172.124 505.508 172.124Z" fill="#D8D8D8"/>
<path d="M263.199 289.936C275.658 289.936 285.758 279.836 285.758 267.376C285.758 254.917 275.658 244.816 263.199 244.816C250.739 244.816 240.639 254.917 240.639 267.376C240.639 279.836 250.739 289.936 263.199 289.936Z" fill="#D8D8D8"/>
<path d="M376.834 235.625C392.985 235.625 406.078 222.532 406.078 206.381C406.078 190.23 392.985 177.137 376.834 177.137C360.683 177.137 347.59 190.23 347.59 206.381C347.59 222.532 360.683 235.625 376.834 235.625Z" fill="#D8D8D8"/>
<path opacity="0.7" fill-rule="evenodd" clip-rule="evenodd" d="M572 212C563.716 212 557 218.716 557 227V255.139L535.255 268.894C534.001 269.687 533.994 271.509 535.241 272.283L557 285.801V314C557 322.284 563.716 329 572 329H952C960.284 329 967 322.284 967 314V227C967 218.716 960.284 212 952 212H572Z" fill="white"/>
<path d="M937.009 232.683C930.381 232.678 925.005 238.046 925 244.674C924.994 251.302 930.362 256.678 936.99 256.683C943.617 256.678 948.989 251.31 949 244.683C949 238.059 943.633 232.689 937.009 232.683ZM936.99 254.687C931.466 254.687 926.987 250.208 926.987 244.683C926.987 239.159 931.466 234.68 936.99 234.68C942.513 234.686 946.988 239.161 946.993 244.683C946.993 250.208 942.515 254.687 936.99 254.687Z" fill="url(#paint0_linear_734_6)"/>
<path d="M940.231 244.099C941.034 243.646 941.467 242.741 941.318 241.832C941.132 240.43 939.46 239.9 938.141 239.789V237.681H936.841V239.77H935.968V237.681H934.668V239.77H932.048V241.117H933.024C933.46 241.117 933.674 241.247 933.674 241.6V247.387C933.674 247.87 933.432 248.018 933.172 248.018H932.178V249.393H934.705V251.529H936.014V249.393H936.887V251.529H938.16V249.393H938.438C941.113 249.393 942.005 248.083 942.005 246.3C941.984 245.248 941.255 244.344 940.231 244.099ZM935.968 241.201H936.897C937.547 241.201 938.829 241.312 938.829 242.371C938.873 243.062 938.372 243.668 937.686 243.755H935.968V241.201ZM937.407 247.888V247.879H935.968V245.092H937.64C938.03 245.092 939.497 245.222 939.497 246.263C939.497 247.303 938.801 247.888 937.407 247.888Z" fill="url(#paint1_linear_734_6)"/>
<path d="M589.926 234.943V235.979H585.684V239.269H589.128V240.305H585.684V244.701H584.41V234.943H589.926ZM598.465 240.571C598.465 240.814 598.451 241.071 598.423 241.341H592.291C592.337 242.097 592.594 242.69 593.061 243.119C593.537 243.539 594.111 243.749 594.783 243.749C595.333 243.749 595.791 243.623 596.155 243.371C596.528 243.11 596.789 242.765 596.939 242.335H598.311C598.105 243.073 597.695 243.675 597.079 244.141C596.463 244.599 595.697 244.827 594.783 244.827C594.055 244.827 593.401 244.664 592.823 244.337C592.253 244.011 591.805 243.549 591.479 242.951C591.152 242.345 590.989 241.645 590.989 240.851C590.989 240.058 591.147 239.363 591.465 238.765C591.782 238.168 592.225 237.711 592.795 237.393C593.373 237.067 594.036 236.903 594.783 236.903C595.511 236.903 596.155 237.062 596.715 237.379C597.275 237.697 597.704 238.135 598.003 238.695C598.311 239.246 598.465 239.871 598.465 240.571ZM597.149 240.305C597.149 239.82 597.041 239.405 596.827 239.059C596.612 238.705 596.318 238.439 595.945 238.261C595.581 238.075 595.175 237.981 594.727 237.981C594.083 237.981 593.532 238.187 593.075 238.597C592.627 239.008 592.37 239.577 592.305 240.305H597.149ZM609.372 236.889C609.97 236.889 610.502 237.015 610.968 237.267C611.435 237.51 611.804 237.879 612.074 238.373C612.345 238.868 612.48 239.47 612.48 240.179V244.701H611.22V240.361C611.22 239.596 611.029 239.013 610.646 238.611C610.273 238.201 609.764 237.995 609.12 237.995C608.458 237.995 607.93 238.21 607.538 238.639C607.146 239.059 606.95 239.671 606.95 240.473V244.701H605.69V240.361C605.69 239.596 605.499 239.013 605.116 238.611C604.743 238.201 604.234 237.995 603.59 237.995C602.928 237.995 602.4 238.21 602.008 238.639C601.616 239.059 601.42 239.671 601.42 240.473V244.701H600.146V237.029H601.42V238.135C601.672 237.734 602.008 237.426 602.428 237.211C602.858 236.997 603.329 236.889 603.842 236.889C604.486 236.889 605.056 237.034 605.55 237.323C606.045 237.613 606.414 238.037 606.656 238.597C606.871 238.056 607.226 237.636 607.72 237.337C608.215 237.039 608.766 236.889 609.372 236.889ZM615.228 235.783C614.986 235.783 614.78 235.699 614.612 235.531C614.444 235.363 614.36 235.158 614.36 234.915C614.36 234.673 614.444 234.467 614.612 234.299C614.78 234.131 614.986 234.047 615.228 234.047C615.462 234.047 615.658 234.131 615.816 234.299C615.984 234.467 616.068 234.673 616.068 234.915C616.068 235.158 615.984 235.363 615.816 235.531C615.658 235.699 615.462 235.783 615.228 235.783ZM615.844 237.029V244.701H614.57V237.029H615.844ZM624.87 238.079H623.26V244.701H621.986V238.079H620.992V237.029H621.986V236.483C621.986 235.625 622.205 234.999 622.644 234.607C623.092 234.206 623.806 234.005 624.786 234.005V235.069C624.226 235.069 623.829 235.181 623.596 235.405C623.372 235.62 623.26 235.979 623.26 236.483V237.029H624.87V238.079ZM627.629 238.275C627.853 237.837 628.171 237.496 628.581 237.253C629.001 237.011 629.51 236.889 630.107 236.889V238.205H629.771C628.343 238.205 627.629 238.98 627.629 240.529V244.701H626.355V237.029H627.629V238.275ZM634.924 244.827C634.205 244.827 633.552 244.664 632.964 244.337C632.385 244.011 631.928 243.549 631.592 242.951C631.265 242.345 631.102 241.645 631.102 240.851C631.102 240.067 631.27 239.377 631.606 238.779C631.951 238.173 632.418 237.711 633.006 237.393C633.594 237.067 634.252 236.903 634.98 236.903C635.708 236.903 636.366 237.067 636.954 237.393C637.542 237.711 638.004 238.168 638.34 238.765C638.685 239.363 638.858 240.058 638.858 240.851C638.858 241.645 638.681 242.345 638.326 242.951C637.981 243.549 637.509 244.011 636.912 244.337C636.315 244.664 635.652 244.827 634.924 244.827ZM634.924 243.707C635.381 243.707 635.811 243.6 636.212 243.385C636.613 243.171 636.935 242.849 637.178 242.419C637.43 241.99 637.556 241.467 637.556 240.851C637.556 240.235 637.435 239.713 637.192 239.283C636.949 238.854 636.632 238.537 636.24 238.331C635.848 238.117 635.423 238.009 634.966 238.009C634.499 238.009 634.07 238.117 633.678 238.331C633.295 238.537 632.987 238.854 632.754 239.283C632.521 239.713 632.404 240.235 632.404 240.851C632.404 241.477 632.516 242.004 632.74 242.433C632.973 242.863 633.281 243.185 633.664 243.399C634.047 243.605 634.467 243.707 634.924 243.707ZM649.759 236.889C650.356 236.889 650.888 237.015 651.355 237.267C651.822 237.51 652.19 237.879 652.461 238.373C652.732 238.868 652.867 239.47 652.867 240.179V244.701H651.607V240.361C651.607 239.596 651.416 239.013 651.033 238.611C650.66 238.201 650.151 237.995 649.507 237.995C648.844 237.995 648.317 238.21 647.925 238.639C647.533 239.059 647.337 239.671 647.337 240.473V244.701H646.077V240.361C646.077 239.596 645.886 239.013 645.503 238.611C645.13 238.201 644.621 237.995 643.977 237.995C643.314 237.995 642.787 238.21 642.395 238.639C642.003 239.059 641.807 239.671 641.807 240.473V244.701H640.533V237.029H641.807V238.135C642.059 237.734 642.395 237.426 642.815 237.211C643.244 236.997 643.716 236.889 644.229 236.889C644.873 236.889 645.442 237.034 645.937 237.323C646.432 237.613 646.8 238.037 647.043 238.597C647.258 238.056 647.612 237.636 648.107 237.337C648.602 237.039 649.152 236.889 649.759 236.889ZM666.361 244.701H665.087L659.963 236.931V244.701H658.689V234.929H659.963L665.087 242.685V234.929H666.361V244.701ZM669.191 235.783C668.948 235.783 668.743 235.699 668.575 235.531C668.407 235.363 668.323 235.158 668.323 234.915C668.323 234.673 668.407 234.467 668.575 234.299C668.743 234.131 668.948 234.047 669.191 234.047C669.424 234.047 669.62 234.131 669.779 234.299C669.947 234.467 670.031 234.673 670.031 234.915C670.031 235.158 669.947 235.363 669.779 235.531C669.62 235.699 669.424 235.783 669.191 235.783ZM669.807 237.029V244.701H668.533V237.029H669.807ZM675.142 236.903C675.805 236.903 676.384 237.048 676.878 237.337C677.382 237.627 677.756 237.991 677.998 238.429V237.029H679.286V244.869C679.286 245.569 679.137 246.19 678.838 246.731C678.54 247.282 678.11 247.711 677.55 248.019C677 248.327 676.356 248.481 675.618 248.481C674.61 248.481 673.77 248.243 673.098 247.767C672.426 247.291 672.03 246.643 671.908 245.821H673.168C673.308 246.288 673.598 246.661 674.036 246.941C674.475 247.231 675.002 247.375 675.618 247.375C676.318 247.375 676.888 247.156 677.326 246.717C677.774 246.279 677.998 245.663 677.998 244.869V243.259C677.746 243.707 677.373 244.081 676.878 244.379C676.384 244.678 675.805 244.827 675.142 244.827C674.461 244.827 673.84 244.659 673.28 244.323C672.73 243.987 672.296 243.516 671.978 242.909C671.661 242.303 671.502 241.612 671.502 240.837C671.502 240.053 671.661 239.367 671.978 238.779C672.296 238.182 672.73 237.72 673.28 237.393C673.84 237.067 674.461 236.903 675.142 236.903ZM677.998 240.851C677.998 240.273 677.882 239.769 677.648 239.339C677.415 238.91 677.098 238.583 676.696 238.359C676.304 238.126 675.87 238.009 675.394 238.009C674.918 238.009 674.484 238.121 674.092 238.345C673.7 238.569 673.388 238.896 673.154 239.325C672.921 239.755 672.804 240.259 672.804 240.837C672.804 241.425 672.921 241.939 673.154 242.377C673.388 242.807 673.7 243.138 674.092 243.371C674.484 243.595 674.918 243.707 675.394 243.707C675.87 243.707 676.304 243.595 676.696 243.371C677.098 243.138 677.415 242.807 677.648 242.377C677.882 241.939 677.998 241.43 677.998 240.851ZM688.439 240.571C688.439 240.814 688.425 241.071 688.397 241.341H682.265C682.312 242.097 682.569 242.69 683.035 243.119C683.511 243.539 684.085 243.749 684.757 243.749C685.308 243.749 685.765 243.623 686.129 243.371C686.503 243.11 686.764 242.765 686.913 242.335H688.285C688.08 243.073 687.669 243.675 687.053 244.141C686.437 244.599 685.672 244.827 684.757 244.827C684.029 244.827 683.376 244.664 682.797 244.337C682.228 244.011 681.78 243.549 681.453 242.951C681.127 242.345 680.963 241.645 680.963 240.851C680.963 240.058 681.122 239.363 681.439 238.765C681.757 238.168 682.2 237.711 682.769 237.393C683.348 237.067 684.011 236.903 684.757 236.903C685.485 236.903 686.129 237.062 686.689 237.379C687.249 237.697 687.679 238.135 687.977 238.695C688.285 239.246 688.439 239.871 688.439 240.571ZM687.123 240.305C687.123 239.82 687.016 239.405 686.801 239.059C686.587 238.705 686.293 238.439 685.919 238.261C685.555 238.075 685.149 237.981 684.701 237.981C684.057 237.981 683.507 238.187 683.049 238.597C682.601 239.008 682.345 239.577 682.279 240.305H687.123ZM691.395 238.275C691.619 237.837 691.936 237.496 692.347 237.253C692.767 237.011 693.276 236.889 693.873 236.889V238.205H693.537C692.109 238.205 691.395 238.98 691.395 240.529V244.701H690.121V237.029H691.395V238.275ZM696.002 235.783C695.759 235.783 695.554 235.699 695.386 235.531C695.218 235.363 695.134 235.158 695.134 234.915C695.134 234.673 695.218 234.467 695.386 234.299C695.554 234.131 695.759 234.047 696.002 234.047C696.235 234.047 696.431 234.131 696.59 234.299C696.758 234.467 696.842 234.673 696.842 234.915C696.842 235.158 696.758 235.363 696.59 235.531C696.431 235.699 696.235 235.783 696.002 235.783ZM696.618 237.029V244.701H695.344V237.029H696.618ZM698.313 240.837C698.313 240.053 698.472 239.367 698.789 238.779C699.106 238.182 699.54 237.72 700.091 237.393C700.651 237.067 701.272 236.903 701.953 236.903C702.625 236.903 703.208 237.048 703.703 237.337C704.198 237.627 704.566 237.991 704.809 238.429V237.029H706.097V244.701H704.809V243.273C704.557 243.721 704.179 244.095 703.675 244.393C703.18 244.683 702.602 244.827 701.939 244.827C701.258 244.827 700.642 244.659 700.091 244.323C699.54 243.987 699.106 243.516 698.789 242.909C698.472 242.303 698.313 241.612 698.313 240.837ZM704.809 240.851C704.809 240.273 704.692 239.769 704.459 239.339C704.226 238.91 703.908 238.583 703.507 238.359C703.115 238.126 702.681 238.009 702.205 238.009C701.729 238.009 701.295 238.121 700.903 238.345C700.511 238.569 700.198 238.896 699.965 239.325C699.732 239.755 699.615 240.259 699.615 240.837C699.615 241.425 699.732 241.939 699.965 242.377C700.198 242.807 700.511 243.138 700.903 243.371C701.295 243.595 701.729 243.707 702.205 243.707C702.681 243.707 703.115 243.595 703.507 243.371C703.908 243.138 704.226 242.807 704.459 242.377C704.692 241.939 704.809 241.43 704.809 240.851Z" fill="#333333"/>
<path d="M595.668 279.745L593.472 288.169H590.988L589.644 282.625L588.252 288.169H585.768L583.632 279.745H585.828L587.04 285.877L588.54 279.745H590.796L592.236 285.877L593.46 279.745H595.668ZM599.745 288.265C599.089 288.265 598.497 288.125 597.969 287.845C597.449 287.565 597.037 287.165 596.733 286.645C596.437 286.125 596.289 285.517 596.289 284.821C596.289 284.133 596.441 283.529 596.745 283.009C597.049 282.481 597.465 282.077 597.993 281.797C598.521 281.517 599.113 281.377 599.769 281.377C600.425 281.377 601.017 281.517 601.545 281.797C602.073 282.077 602.489 282.481 602.793 283.009C603.097 283.529 603.249 284.133 603.249 284.821C603.249 285.509 603.093 286.117 602.781 286.645C602.477 287.165 602.057 287.565 601.521 287.845C600.993 288.125 600.401 288.265 599.745 288.265ZM599.745 286.489C600.137 286.489 600.469 286.345 600.741 286.057C601.021 285.769 601.161 285.357 601.161 284.821C601.161 284.285 601.025 283.873 600.753 283.585C600.489 283.297 600.161 283.153 599.769 283.153C599.369 283.153 599.037 283.297 598.773 283.585C598.509 283.865 598.377 284.277 598.377 284.821C598.377 285.357 598.505 285.769 598.761 286.057C599.025 286.345 599.353 286.489 599.745 286.489ZM608.418 281.401C609.202 281.401 609.826 281.657 610.29 282.169C610.762 282.673 610.998 283.369 610.998 284.257V288.169H608.958V284.533C608.958 284.085 608.842 283.737 608.61 283.489C608.378 283.241 608.066 283.117 607.674 283.117C607.282 283.117 606.97 283.241 606.738 283.489C606.506 283.737 606.39 284.085 606.39 284.533V288.169H604.338V281.473H606.39V282.361C606.598 282.065 606.878 281.833 607.23 281.665C607.582 281.489 607.978 281.401 608.418 281.401ZM612.016 284.809C612.016 284.121 612.144 283.517 612.4 282.997C612.664 282.477 613.02 282.077 613.468 281.797C613.916 281.517 614.416 281.377 614.968 281.377C615.408 281.377 615.808 281.469 616.168 281.653C616.536 281.837 616.824 282.085 617.032 282.397V279.289H619.084V288.169H617.032V287.209C616.84 287.529 616.564 287.785 616.204 287.977C615.852 288.169 615.44 288.265 614.968 288.265C614.416 288.265 613.916 288.125 613.468 287.845C613.02 287.557 612.664 287.153 612.4 286.633C612.144 286.105 612.016 285.497 612.016 284.809ZM617.032 284.821C617.032 284.309 616.888 283.905 616.6 283.609C616.32 283.313 615.976 283.165 615.568 283.165C615.16 283.165 614.812 283.313 614.524 283.609C614.244 283.897 614.104 284.297 614.104 284.809C614.104 285.321 614.244 285.729 614.524 286.033C614.812 286.329 615.16 286.477 615.568 286.477C615.976 286.477 616.32 286.329 616.6 286.033C616.888 285.737 617.032 285.333 617.032 284.821ZM626.88 284.713C626.88 284.905 626.868 285.105 626.844 285.313H622.2C622.232 285.729 622.364 286.049 622.596 286.273C622.836 286.489 623.128 286.597 623.472 286.597C623.984 286.597 624.34 286.381 624.54 285.949H626.724C626.612 286.389 626.408 286.785 626.112 287.137C625.824 287.489 625.46 287.765 625.02 287.965C624.58 288.165 624.088 288.265 623.544 288.265C622.888 288.265 622.304 288.125 621.792 287.845C621.28 287.565 620.88 287.165 620.592 286.645C620.304 286.125 620.16 285.517 620.16 284.821C620.16 284.125 620.3 283.517 620.58 282.997C620.868 282.477 621.268 282.077 621.78 281.797C622.292 281.517 622.88 281.377 623.544 281.377C624.192 281.377 624.768 281.513 625.272 281.785C625.776 282.057 626.168 282.445 626.448 282.949C626.736 283.453 626.88 284.041 626.88 284.713ZM624.78 284.173C624.78 283.821 624.66 283.541 624.42 283.333C624.18 283.125 623.88 283.021 623.52 283.021C623.176 283.021 622.884 283.121 622.644 283.321C622.412 283.521 622.268 283.805 622.212 284.173H624.78ZM630.015 282.589C630.255 282.221 630.555 281.933 630.915 281.725C631.275 281.509 631.675 281.401 632.115 281.401V283.573H631.551C631.039 283.573 630.655 283.685 630.399 283.909C630.143 284.125 630.015 284.509 630.015 285.061V288.169H627.963V281.473H630.015V282.589ZM636.456 283.177H635.352V288.169H633.3V283.177H632.556V281.473H633.3V281.281C633.3 280.457 633.536 279.833 634.008 279.409C634.48 278.977 635.172 278.761 636.084 278.761C636.236 278.761 636.348 278.765 636.42 278.773V280.513C636.028 280.489 635.752 280.545 635.592 280.681C635.432 280.817 635.352 281.061 635.352 281.413V281.473H636.456V283.177ZM644.032 281.473V288.169H641.98V287.257C641.772 287.553 641.488 287.793 641.128 287.977C640.776 288.153 640.384 288.241 639.952 288.241C639.44 288.241 638.988 288.129 638.596 287.905C638.204 287.673 637.9 287.341 637.684 286.909C637.468 286.477 637.36 285.969 637.36 285.385V281.473H639.4V285.109C639.4 285.557 639.516 285.905 639.748 286.153C639.98 286.401 640.292 286.525 640.684 286.525C641.084 286.525 641.4 286.401 641.632 286.153C641.864 285.905 641.98 285.557 641.98 285.109V281.473H644.032ZM647.558 279.289V288.169H645.506V279.289H647.558ZM654.312 288.265C653.728 288.265 653.208 288.165 652.752 287.965C652.296 287.765 651.936 287.493 651.672 287.149C651.408 286.797 651.26 286.405 651.228 285.973H653.256C653.28 286.205 653.388 286.393 653.58 286.537C653.772 286.681 654.008 286.753 654.288 286.753C654.544 286.753 654.74 286.705 654.876 286.609C655.02 286.505 655.092 286.373 655.092 286.213C655.092 286.021 654.992 285.881 654.792 285.793C654.592 285.697 654.268 285.593 653.82 285.481C653.34 285.369 652.94 285.253 652.62 285.133C652.3 285.005 652.024 284.809 651.792 284.545C651.56 284.273 651.444 283.909 651.444 283.453C651.444 283.069 651.548 282.721 651.756 282.409C651.972 282.089 652.284 281.837 652.692 281.653C653.108 281.469 653.6 281.377 654.168 281.377C655.008 281.377 655.668 281.585 656.148 282.001C656.636 282.417 656.916 282.969 656.988 283.657H655.092C655.06 283.425 654.956 283.241 654.78 283.105C654.612 282.969 654.388 282.901 654.108 282.901C653.868 282.901 653.684 282.949 653.556 283.045C653.428 283.133 653.364 283.257 653.364 283.417C653.364 283.609 653.464 283.753 653.664 283.849C653.872 283.945 654.192 284.041 654.624 284.137C655.12 284.265 655.524 284.393 655.836 284.521C656.148 284.641 656.42 284.841 656.652 285.121C656.892 285.393 657.016 285.761 657.024 286.225C657.024 286.617 656.912 286.969 656.688 287.281C656.472 287.585 656.156 287.825 655.74 288.001C655.332 288.177 654.856 288.265 654.312 288.265ZM664.591 284.713C664.591 284.905 664.579 285.105 664.555 285.313H659.911C659.943 285.729 660.075 286.049 660.307 286.273C660.547 286.489 660.839 286.597 661.183 286.597C661.695 286.597 662.051 286.381 662.251 285.949H664.435C664.323 286.389 664.119 286.785 663.823 287.137C663.535 287.489 663.171 287.765 662.731 287.965C662.291 288.165 661.799 288.265 661.255 288.265C660.599 288.265 660.015 288.125 659.503 287.845C658.991 287.565 658.591 287.165 658.303 286.645C658.015 286.125 657.871 285.517 657.871 284.821C657.871 284.125 658.011 283.517 658.291 282.997C658.579 282.477 658.979 282.077 659.491 281.797C660.003 281.517 660.591 281.377 661.255 281.377C661.903 281.377 662.479 281.513 662.983 281.785C663.487 282.057 663.879 282.445 664.159 282.949C664.447 283.453 664.591 284.041 664.591 284.713ZM662.491 284.173C662.491 283.821 662.371 283.541 662.131 283.333C661.891 283.125 661.591 283.021 661.231 283.021C660.887 283.021 660.595 283.121 660.355 283.321C660.123 283.521 659.979 283.805 659.923 284.173H662.491ZM667.726 282.589C667.966 282.221 668.266 281.933 668.626 281.725C668.986 281.509 669.386 281.401 669.826 281.401V283.573H669.262C668.75 283.573 668.366 283.685 668.11 283.909C667.854 284.125 667.726 284.509 667.726 285.061V288.169H665.674V281.473H667.726V282.589ZM673.819 286.249L675.271 281.473H677.455L675.079 288.169H672.547L670.171 281.473H672.367L673.819 286.249ZM679.35 280.777C678.99 280.777 678.694 280.673 678.462 280.465C678.238 280.249 678.126 279.985 678.126 279.673C678.126 279.353 678.238 279.089 678.462 278.881C678.694 278.665 678.99 278.557 679.35 278.557C679.702 278.557 679.99 278.665 680.214 278.881C680.446 279.089 680.562 279.353 680.562 279.673C680.562 279.985 680.446 280.249 680.214 280.465C679.99 280.673 679.702 280.777 679.35 280.777ZM680.37 281.473V288.169H678.318V281.473H680.37ZM681.449 284.821C681.449 284.125 681.589 283.517 681.869 282.997C682.157 282.477 682.553 282.077 683.057 281.797C683.569 281.517 684.153 281.377 684.809 281.377C685.649 281.377 686.349 281.597 686.909 282.037C687.477 282.477 687.849 283.097 688.025 283.897H685.841C685.657 283.385 685.301 283.129 684.773 283.129C684.397 283.129 684.097 283.277 683.873 283.573C683.649 283.861 683.537 284.277 683.537 284.821C683.537 285.365 683.649 285.785 683.873 286.081C684.097 286.369 684.397 286.513 684.773 286.513C685.301 286.513 685.657 286.257 685.841 285.745H688.025C687.849 286.529 687.477 287.145 686.909 287.593C686.341 288.041 685.641 288.265 684.809 288.265C684.153 288.265 683.569 288.125 683.057 287.845C682.553 287.565 682.157 287.165 681.869 286.645C681.589 286.125 681.449 285.517 681.449 284.821ZM695.435 284.713C695.435 284.905 695.423 285.105 695.399 285.313H690.755C690.787 285.729 690.919 286.049 691.151 286.273C691.391 286.489 691.683 286.597 692.027 286.597C692.539 286.597 692.895 286.381 693.095 285.949H695.279C695.167 286.389 694.963 286.785 694.667 287.137C694.379 287.489 694.015 287.765 693.575 287.965C693.135 288.165 692.643 288.265 692.099 288.265C691.443 288.265 690.859 288.125 690.347 287.845C689.835 287.565 689.435 287.165 689.147 286.645C688.859 286.125 688.715 285.517 688.715 284.821C688.715 284.125 688.855 283.517 689.135 282.997C689.423 282.477 689.823 282.077 690.335 281.797C690.847 281.517 691.435 281.377 692.099 281.377C692.747 281.377 693.323 281.513 693.827 281.785C694.331 282.057 694.723 282.445 695.003 282.949C695.291 283.453 695.435 284.041 695.435 284.713ZM693.335 284.173C693.335 283.821 693.215 283.541 692.975 283.333C692.735 283.125 692.435 283.021 692.075 283.021C691.731 283.021 691.439 283.121 691.199 283.321C690.967 283.521 690.823 283.805 690.767 284.173H693.335ZM590.592 302.229C590.36 301.741 590.024 301.365 589.584 301.101C589.144 300.829 588.632 300.693 588.048 300.693C587.464 300.693 586.936 300.829 586.464 301.101C586 301.365 585.632 301.749 585.36 302.253C585.096 302.749 584.964 303.325 584.964 303.981C584.964 304.637 585.096 305.213 585.36 305.709C585.632 306.205 586 306.589 586.464 306.861C586.936 307.125 587.464 307.257 588.048 307.257C588.864 307.257 589.536 307.013 590.064 306.525C590.592 306.037 590.9 305.377 590.988 304.545H587.652V303.657H592.152V304.497C592.088 305.185 591.872 305.817 591.504 306.393C591.136 306.961 590.652 307.413 590.052 307.749C589.452 308.077 588.784 308.241 588.048 308.241C587.272 308.241 586.564 308.061 585.924 307.701C585.284 307.333 584.776 306.825 584.4 306.177C584.032 305.529 583.848 304.797 583.848 303.981C583.848 303.165 584.032 302.433 584.4 301.785C584.776 301.129 585.284 300.621 585.924 300.261C586.564 299.893 587.272 299.709 588.048 299.709C588.936 299.709 589.72 299.929 590.4 300.369C591.088 300.809 591.588 301.429 591.9 302.229H590.592ZM596.464 308.277C595.848 308.277 595.288 308.137 594.784 307.857C594.288 307.577 593.896 307.181 593.608 306.669C593.328 306.149 593.188 305.549 593.188 304.869C593.188 304.197 593.332 303.605 593.62 303.093C593.916 302.573 594.316 302.177 594.82 301.905C595.324 301.625 595.888 301.485 596.512 301.485C597.136 301.485 597.7 301.625 598.204 301.905C598.708 302.177 599.104 302.569 599.392 303.081C599.688 303.593 599.836 304.189 599.836 304.869C599.836 305.549 599.684 306.149 599.38 306.669C599.084 307.181 598.68 307.577 598.168 307.857C597.656 308.137 597.088 308.277 596.464 308.277ZM596.464 307.317C596.856 307.317 597.224 307.225 597.568 307.041C597.912 306.857 598.188 306.581 598.396 306.213C598.612 305.845 598.72 305.397 598.72 304.869C598.72 304.341 598.616 303.893 598.408 303.525C598.2 303.157 597.928 302.885 597.592 302.709C597.256 302.525 596.892 302.433 596.5 302.433C596.1 302.433 595.732 302.525 595.396 302.709C595.068 302.885 594.804 303.157 594.604 303.525C594.404 303.893 594.304 304.341 594.304 304.869C594.304 305.405 594.4 305.857 594.592 306.225C594.792 306.593 595.056 306.869 595.384 307.053C595.712 307.229 596.072 307.317 596.464 307.317ZM604.14 308.277C603.524 308.277 602.964 308.137 602.46 307.857C601.964 307.577 601.572 307.181 601.284 306.669C601.004 306.149 600.864 305.549 600.864 304.869C600.864 304.197 601.008 303.605 601.296 303.093C601.592 302.573 601.992 302.177 602.496 301.905C603 301.625 603.564 301.485 604.188 301.485C604.812 301.485 605.376 301.625 605.88 301.905C606.384 302.177 606.78 302.569 607.068 303.081C607.364 303.593 607.512 304.189 607.512 304.869C607.512 305.549 607.36 306.149 607.056 306.669C606.76 307.181 606.356 307.577 605.844 307.857C605.332 308.137 604.764 308.277 604.14 308.277ZM604.14 307.317C604.532 307.317 604.9 307.225 605.244 307.041C605.588 306.857 605.864 306.581 606.072 306.213C606.288 305.845 606.396 305.397 606.396 304.869C606.396 304.341 606.292 303.893 606.084 303.525C605.876 303.157 605.604 302.885 605.268 302.709C604.932 302.525 604.568 302.433 604.176 302.433C603.776 302.433 603.408 302.525 603.072 302.709C602.744 302.885 602.48 303.157 602.28 303.525C602.08 303.893 601.98 304.341 601.98 304.869C601.98 305.405 602.076 305.857 602.268 306.225C602.468 306.593 602.732 306.869 603.06 307.053C603.388 307.229 603.748 307.317 604.14 307.317ZM608.539 304.857C608.539 304.185 608.675 303.597 608.947 303.093C609.219 302.581 609.591 302.185 610.063 301.905C610.543 301.625 611.079 301.485 611.671 301.485C612.183 301.485 612.659 301.605 613.099 301.845C613.539 302.077 613.875 302.385 614.107 302.769V299.289H615.211V308.169H614.107V306.933C613.891 307.325 613.571 307.649 613.147 307.905C612.723 308.153 612.227 308.277 611.659 308.277C611.075 308.277 610.543 308.133 610.063 307.845C609.591 307.557 609.219 307.153 608.947 306.633C608.675 306.113 608.539 305.521 608.539 304.857ZM614.107 304.869C614.107 304.373 614.007 303.941 613.807 303.573C613.607 303.205 613.335 302.925 612.991 302.733C612.655 302.533 612.283 302.433 611.875 302.433C611.467 302.433 611.095 302.529 610.759 302.721C610.423 302.913 610.155 303.193 609.955 303.561C609.755 303.929 609.655 304.361 609.655 304.857C609.655 305.361 609.755 305.801 609.955 306.177C610.155 306.545 610.423 306.829 610.759 307.029C611.095 307.221 611.467 307.317 611.875 307.317C612.283 307.317 612.655 307.221 612.991 307.029C613.335 306.829 613.607 306.545 613.807 306.177C614.007 305.801 614.107 305.365 614.107 304.869ZM619.848 304.857C619.848 304.185 619.984 303.597 620.256 303.093C620.528 302.581 620.9 302.185 621.372 301.905C621.852 301.625 622.388 301.485 622.98 301.485C623.492 301.485 623.968 301.605 624.408 301.845C624.848 302.077 625.184 302.385 625.416 302.769V299.289H626.52V308.169H625.416V306.933C625.2 307.325 624.88 307.649 624.456 307.905C624.032 308.153 623.536 308.277 622.968 308.277C622.384 308.277 621.852 308.133 621.372 307.845C620.9 307.557 620.528 307.153 620.256 306.633C619.984 306.113 619.848 305.521 619.848 304.857ZM625.416 304.869C625.416 304.373 625.316 303.941 625.116 303.573C624.916 303.205 624.644 302.925 624.3 302.733C623.964 302.533 623.592 302.433 623.184 302.433C622.776 302.433 622.404 302.529 622.068 302.721C621.732 302.913 621.464 303.193 621.264 303.561C621.064 303.929 620.964 304.361 620.964 304.857C620.964 305.361 621.064 305.801 621.264 306.177C621.464 306.545 621.732 306.829 622.068 307.029C622.404 307.221 622.776 307.317 623.184 307.317C623.592 307.317 623.964 307.221 624.3 307.029C624.644 306.829 624.916 306.545 625.116 306.177C625.316 305.801 625.416 305.365 625.416 304.869ZM634.365 304.629C634.365 304.837 634.353 305.057 634.329 305.289H629.073C629.113 305.937 629.333 306.445 629.733 306.813C630.141 307.173 630.633 307.353 631.209 307.353C631.681 307.353 632.073 307.245 632.385 307.029C632.705 306.805 632.929 306.509 633.057 306.141H634.233C634.057 306.773 633.705 307.289 633.177 307.689C632.649 308.081 631.993 308.277 631.209 308.277C630.585 308.277 630.025 308.137 629.529 307.857C629.041 307.577 628.657 307.181 628.377 306.669C628.097 306.149 627.957 305.549 627.957 304.869C627.957 304.189 628.093 303.593 628.365 303.081C628.637 302.569 629.017 302.177 629.505 301.905C630.001 301.625 630.569 301.485 631.209 301.485C631.833 301.485 632.385 301.621 632.865 301.893C633.345 302.165 633.713 302.541 633.969 303.021C634.233 303.493 634.365 304.029 634.365 304.629ZM633.237 304.401C633.237 303.985 633.145 303.629 632.961 303.333C632.777 303.029 632.525 302.801 632.205 302.649C631.893 302.489 631.545 302.409 631.161 302.409C630.609 302.409 630.137 302.585 629.745 302.937C629.361 303.289 629.141 303.777 629.085 304.401H633.237ZM635.399 304.857C635.399 304.185 635.535 303.597 635.807 303.093C636.079 302.581 636.451 302.185 636.923 301.905C637.403 301.625 637.935 301.485 638.519 301.485C639.095 301.485 639.595 301.609 640.019 301.857C640.443 302.105 640.759 302.417 640.967 302.793V301.593H642.071V308.169H640.967V306.945C640.751 307.329 640.427 307.649 639.995 307.905C639.571 308.153 639.075 308.277 638.507 308.277C637.923 308.277 637.395 308.133 636.923 307.845C636.451 307.557 636.079 307.153 635.807 306.633C635.535 306.113 635.399 305.521 635.399 304.857ZM640.967 304.869C640.967 304.373 640.867 303.941 640.667 303.573C640.467 303.205 640.195 302.925 639.851 302.733C639.515 302.533 639.143 302.433 638.735 302.433C638.327 302.433 637.955 302.529 637.619 302.721C637.283 302.913 637.015 303.193 636.815 303.561C636.615 303.929 636.515 304.361 636.515 304.857C636.515 305.361 636.615 305.801 636.815 306.177C637.015 306.545 637.283 306.829 637.619 307.029C637.955 307.221 638.327 307.317 638.735 307.317C639.143 307.317 639.515 307.221 639.851 307.029C640.195 306.829 640.467 306.545 640.667 306.177C640.867 305.801 640.967 305.365 640.967 304.869ZM645.008 299.289V308.169H643.916V299.289H645.008ZM649.661 304.857C649.661 304.185 649.797 303.597 650.069 303.093C650.341 302.581 650.713 302.185 651.185 301.905C651.665 301.625 652.197 301.485 652.781 301.485C653.357 301.485 653.857 301.609 654.281 301.857C654.705 302.105 655.021 302.417 655.229 302.793V301.593H656.333V308.169H655.229V306.945C655.013 307.329 654.689 307.649 654.257 307.905C653.833 308.153 653.337 308.277 652.769 308.277C652.185 308.277 651.657 308.133 651.185 307.845C650.713 307.557 650.341 307.153 650.069 306.633C649.797 306.113 649.661 305.521 649.661 304.857ZM655.229 304.869C655.229 304.373 655.129 303.941 654.929 303.573C654.729 303.205 654.457 302.925 654.113 302.733C653.777 302.533 653.405 302.433 652.997 302.433C652.589 302.433 652.217 302.529 651.881 302.721C651.545 302.913 651.277 303.193 651.077 303.561C650.877 303.929 650.777 304.361 650.777 304.857C650.777 305.361 650.877 305.801 651.077 306.177C651.277 306.545 651.545 306.829 651.881 307.029C652.217 307.221 652.589 307.317 652.997 307.317C653.405 307.317 653.777 307.221 654.113 307.029C654.457 306.829 654.729 306.545 654.929 306.177C655.129 305.801 655.229 305.365 655.229 304.869ZM661.382 301.473C662.182 301.473 662.83 301.717 663.326 302.205C663.822 302.685 664.07 303.381 664.07 304.293V308.169H662.99V304.449C662.99 303.793 662.826 303.293 662.498 302.949C662.17 302.597 661.722 302.421 661.154 302.421C660.578 302.421 660.118 302.601 659.774 302.961C659.438 303.321 659.27 303.845 659.27 304.533V308.169H658.178V301.593H659.27V302.529C659.486 302.193 659.778 301.933 660.146 301.749C660.522 301.565 660.934 301.473 661.382 301.473ZM665.446 304.857C665.446 304.185 665.582 303.597 665.854 303.093C666.126 302.581 666.498 302.185 666.97 301.905C667.45 301.625 667.986 301.485 668.578 301.485C669.09 301.485 669.566 301.605 670.006 301.845C670.446 302.077 670.782 302.385 671.014 302.769V299.289H672.118V308.169H671.014V306.933C670.798 307.325 670.478 307.649 670.054 307.905C669.63 308.153 669.134 308.277 668.566 308.277C667.982 308.277 667.45 308.133 666.97 307.845C666.498 307.557 666.126 307.153 665.854 306.633C665.582 306.113 665.446 305.521 665.446 304.857ZM671.014 304.869C671.014 304.373 670.914 303.941 670.714 303.573C670.514 303.205 670.242 302.925 669.898 302.733C669.562 302.533 669.19 302.433 668.782 302.433C668.374 302.433 668.002 302.529 667.666 302.721C667.33 302.913 667.062 303.193 666.862 303.561C666.662 303.929 666.562 304.361 666.562 304.857C666.562 305.361 666.662 305.801 666.862 306.177C667.062 306.545 667.33 306.829 667.666 307.029C668.002 307.221 668.374 307.317 668.782 307.317C669.19 307.317 669.562 307.221 669.898 307.029C670.242 306.829 670.514 306.545 670.714 306.177C670.914 305.801 671.014 305.365 671.014 304.869ZM679.61 307.161L681.65 301.593H682.814L680.234 308.169H678.962L676.382 301.593H677.558L679.61 307.161ZM689.889 304.629C689.889 304.837 689.877 305.057 689.853 305.289H684.597C684.637 305.937 684.857 306.445 685.257 306.813C685.665 307.173 686.157 307.353 686.733 307.353C687.205 307.353 687.597 307.245 687.909 307.029C688.229 306.805 688.453 306.509 688.581 306.141H689.757C689.581 306.773 689.229 307.289 688.701 307.689C688.173 308.081 687.517 308.277 686.733 308.277C686.109 308.277 685.549 308.137 685.053 307.857C684.565 307.577 684.181 307.181 683.901 306.669C683.621 306.149 683.481 305.549 683.481 304.869C683.481 304.189 683.617 303.593 683.889 303.081C684.161 302.569 684.541 302.177 685.029 301.905C685.525 301.625 686.093 301.485 686.733 301.485C687.357 301.485 687.909 301.621 688.389 301.893C688.869 302.165 689.237 302.541 689.493 303.021C689.757 303.493 689.889 304.029 689.889 304.629ZM688.761 304.401C688.761 303.985 688.669 303.629 688.485 303.333C688.301 303.029 688.049 302.801 687.729 302.649C687.417 302.489 687.069 302.409 686.685 302.409C686.133 302.409 685.661 302.585 685.269 302.937C684.885 303.289 684.665 303.777 684.609 304.401H688.761ZM692.422 302.661C692.614 302.285 692.886 301.993 693.238 301.785C693.598 301.577 694.034 301.473 694.546 301.473V302.601H694.258C693.034 302.601 692.422 303.265 692.422 304.593V308.169H691.33V301.593H692.422V302.661ZM701.471 301.593L697.511 311.265H696.383L697.679 308.097L695.027 301.593H696.239L698.303 306.921L700.343 301.593H701.471ZM714.528 301.593L712.476 308.169H711.348L709.764 302.949L708.18 308.169H707.052L704.988 301.593H706.104L707.616 307.113L709.248 301.593H710.364L711.96 307.125L713.448 301.593H714.528ZM718.48 308.277C717.864 308.277 717.304 308.137 716.8 307.857C716.304 307.577 715.912 307.181 715.624 306.669C715.344 306.149 715.204 305.549 715.204 304.869C715.204 304.197 715.348 303.605 715.636 303.093C715.932 302.573 716.332 302.177 716.836 301.905C717.34 301.625 717.904 301.485 718.528 301.485C719.152 301.485 719.716 301.625 720.22 301.905C720.724 302.177 721.12 302.569 721.408 303.081C721.704 303.593 721.852 304.189 721.852 304.869C721.852 305.549 721.7 306.149 721.396 306.669C721.1 307.181 720.696 307.577 720.184 307.857C719.672 308.137 719.104 308.277 718.48 308.277ZM718.48 307.317C718.872 307.317 719.24 307.225 719.584 307.041C719.928 306.857 720.204 306.581 720.412 306.213C720.628 305.845 720.736 305.397 720.736 304.869C720.736 304.341 720.632 303.893 720.424 303.525C720.216 303.157 719.944 302.885 719.608 302.709C719.272 302.525 718.908 302.433 718.516 302.433C718.116 302.433 717.748 302.525 717.412 302.709C717.084 302.885 716.82 303.157 716.62 303.525C716.42 303.893 716.32 304.341 716.32 304.869C716.32 305.405 716.416 305.857 716.608 306.225C716.808 306.593 717.072 306.869 717.4 307.053C717.728 307.229 718.088 307.317 718.48 307.317ZM726.491 301.473C727.291 301.473 727.939 301.717 728.435 302.205C728.931 302.685 729.179 303.381 729.179 304.293V308.169H728.099V304.449C728.099 303.793 727.935 303.293 727.607 302.949C727.279 302.597 726.831 302.421 726.263 302.421C725.687 302.421 725.227 302.601 724.883 302.961C724.547 303.321 724.379 303.845 724.379 304.533V308.169H723.287V301.593H724.379V302.529C724.595 302.193 724.887 301.933 725.255 301.749C725.631 301.565 726.043 301.473 726.491 301.473ZM730.555 304.857C730.555 304.185 730.691 303.597 730.963 303.093C731.235 302.581 731.607 302.185 732.079 301.905C732.559 301.625 733.095 301.485 733.687 301.485C734.199 301.485 734.675 301.605 735.115 301.845C735.555 302.077 735.891 302.385 736.123 302.769V299.289H737.227V308.169H736.123V306.933C735.907 307.325 735.587 307.649 735.163 307.905C734.739 308.153 734.243 308.277 733.675 308.277C733.091 308.277 732.559 308.133 732.079 307.845C731.607 307.557 731.235 307.153 730.963 306.633C730.691 306.113 730.555 305.521 730.555 304.857ZM736.123 304.869C736.123 304.373 736.023 303.941 735.823 303.573C735.623 303.205 735.351 302.925 735.007 302.733C734.671 302.533 734.299 302.433 733.891 302.433C733.483 302.433 733.111 302.529 732.775 302.721C732.439 302.913 732.171 303.193 731.971 303.561C731.771 303.929 731.671 304.361 731.671 304.857C731.671 305.361 731.771 305.801 731.971 306.177C732.171 306.545 732.439 306.829 732.775 307.029C733.111 307.221 733.483 307.317 733.891 307.317C734.299 307.317 734.671 307.221 735.007 307.029C735.351 306.829 735.623 306.545 735.823 306.177C736.023 305.801 736.123 305.365 736.123 304.869ZM745.072 304.629C745.072 304.837 745.06 305.057 745.036 305.289H739.78C739.82 305.937 740.04 306.445 740.44 306.813C740.848 307.173 741.34 307.353 741.916 307.353C742.388 307.353 742.78 307.245 743.092 307.029C743.412 306.805 743.636 306.509 743.764 306.141H744.94C744.764 306.773 744.412 307.289 743.884 307.689C743.356 308.081 742.7 308.277 741.916 308.277C741.292 308.277 740.732 308.137 740.236 307.857C739.748 307.577 739.364 307.181 739.084 306.669C738.804 306.149 738.664 305.549 738.664 304.869C738.664 304.189 738.8 303.593 739.072 303.081C739.344 302.569 739.724 302.177 740.212 301.905C740.708 301.625 741.276 301.485 741.916 301.485C742.54 301.485 743.092 301.621 743.572 301.893C744.052 302.165 744.42 302.541 744.676 303.021C744.94 303.493 745.072 304.029 745.072 304.629ZM743.944 304.401C743.944 303.985 743.852 303.629 743.668 303.333C743.484 303.029 743.232 302.801 742.912 302.649C742.6 302.489 742.252 302.409 741.868 302.409C741.316 302.409 740.844 302.585 740.452 302.937C740.068 303.289 739.848 303.777 739.792 304.401H743.944ZM747.606 302.661C747.798 302.285 748.07 301.993 748.422 301.785C748.782 301.577 749.218 301.473 749.73 301.473V302.601H749.442C748.218 302.601 747.606 303.265 747.606 304.593V308.169H746.514V301.593H747.606V302.661ZM753.666 302.493H752.286V308.169H751.194V302.493H750.342V301.593H751.194V301.125C751.194 300.389 751.382 299.853 751.758 299.517C752.142 299.173 752.754 299.001 753.594 299.001V299.913C753.114 299.913 752.774 300.009 752.574 300.201C752.382 300.385 752.286 300.693 752.286 301.125V301.593H753.666V302.493ZM760.772 301.593V308.169H759.68V307.197C759.472 307.533 759.18 307.797 758.804 307.989C758.436 308.173 758.028 308.265 757.58 308.265C757.068 308.265 756.608 308.161 756.2 307.953C755.792 307.737 755.468 307.417 755.228 306.993C754.996 306.569 754.88 306.053 754.88 305.445V301.593H755.96V305.301C755.96 305.949 756.124 306.449 756.452 306.801C756.78 307.145 757.228 307.317 757.796 307.317C758.38 307.317 758.84 307.137 759.176 306.777C759.512 306.417 759.68 305.893 759.68 305.205V301.593H760.772ZM763.707 299.289V308.169H762.615V299.289H763.707ZM771.096 308.277C770.592 308.277 770.14 308.193 769.74 308.025C769.34 307.849 769.024 307.609 768.792 307.305C768.56 306.993 768.432 306.637 768.408 306.237H769.536C769.568 306.565 769.72 306.833 769.992 307.041C770.272 307.249 770.636 307.353 771.084 307.353C771.5 307.353 771.828 307.261 772.068 307.077C772.308 306.893 772.428 306.661 772.428 306.381C772.428 306.093 772.3 305.881 772.044 305.745C771.788 305.601 771.392 305.461 770.856 305.325C770.368 305.197 769.968 305.069 769.656 304.941C769.352 304.805 769.088 304.609 768.864 304.353C768.648 304.089 768.54 303.745 768.54 303.321C768.54 302.985 768.64 302.677 768.84 302.397C769.04 302.117 769.324 301.897 769.692 301.737C770.06 301.569 770.48 301.485 770.952 301.485C771.68 301.485 772.268 301.669 772.716 302.037C773.164 302.405 773.404 302.909 773.436 303.549H772.344C772.32 303.205 772.18 302.929 771.924 302.721C771.676 302.513 771.34 302.409 770.916 302.409C770.524 302.409 770.212 302.493 769.98 302.661C769.748 302.829 769.632 303.049 769.632 303.321C769.632 303.537 769.7 303.717 769.836 303.861C769.98 303.997 770.156 304.109 770.364 304.197C770.58 304.277 770.876 304.369 771.252 304.473C771.724 304.601 772.108 304.729 772.404 304.857C772.7 304.977 772.952 305.161 773.16 305.409C773.376 305.657 773.488 305.981 773.496 306.381C773.496 306.741 773.396 307.065 773.196 307.353C772.996 307.641 772.712 307.869 772.344 308.037C771.984 308.197 771.568 308.277 771.096 308.277ZM781.037 304.629C781.037 304.837 781.025 305.057 781.001 305.289H775.745C775.785 305.937 776.005 306.445 776.405 306.813C776.813 307.173 777.305 307.353 777.881 307.353C778.353 307.353 778.745 307.245 779.057 307.029C779.377 306.805 779.601 306.509 779.729 306.141H780.905C780.729 306.773 780.377 307.289 779.849 307.689C779.321 308.081 778.665 308.277 777.881 308.277C777.257 308.277 776.697 308.137 776.201 307.857C775.713 307.577 775.329 307.181 775.049 306.669C774.769 306.149 774.629 305.549 774.629 304.869C774.629 304.189 774.765 303.593 775.037 303.081C775.309 302.569 775.689 302.177 776.177 301.905C776.673 301.625 777.241 301.485 777.881 301.485C778.505 301.485 779.057 301.621 779.537 301.893C780.017 302.165 780.385 302.541 780.641 303.021C780.905 303.493 781.037 304.029 781.037 304.629ZM779.909 304.401C779.909 303.985 779.817 303.629 779.633 303.333C779.449 303.029 779.197 302.801 778.877 302.649C778.565 302.489 778.217 302.409 777.833 302.409C777.281 302.409 776.809 302.585 776.417 302.937C776.033 303.289 775.813 303.777 775.757 304.401H779.909ZM783.571 302.661C783.763 302.285 784.035 301.993 784.387 301.785C784.747 301.577 785.183 301.473 785.695 301.473V302.601H785.407C784.183 302.601 783.571 303.265 783.571 304.593V308.169H782.479V301.593H783.571V302.661ZM789.403 307.161L791.443 301.593H792.607L790.027 308.169H788.755L786.175 301.593H787.351L789.403 307.161ZM794.246 300.525C794.038 300.525 793.862 300.453 793.718 300.309C793.574 300.165 793.502 299.989 793.502 299.781C793.502 299.573 793.574 299.397 793.718 299.253C793.862 299.109 794.038 299.037 794.246 299.037C794.446 299.037 794.614 299.109 794.75 299.253C794.894 299.397 794.966 299.573 794.966 299.781C794.966 299.989 794.894 300.165 794.75 300.309C794.614 300.453 794.446 300.525 794.246 300.525ZM794.774 301.593V308.169H793.682V301.593H794.774ZM796.227 304.869C796.227 304.189 796.363 303.597 796.635 303.093C796.907 302.581 797.283 302.185 797.763 301.905C798.251 301.625 798.807 301.485 799.431 301.485C800.239 301.485 800.903 301.681 801.423 302.073C801.951 302.465 802.299 303.009 802.467 303.705H801.291C801.179 303.305 800.959 302.989 800.631 302.757C800.311 302.525 799.911 302.409 799.431 302.409C798.807 302.409 798.303 302.625 797.919 303.057C797.535 303.481 797.343 304.085 797.343 304.869C797.343 305.661 797.535 306.273 797.919 306.705C798.303 307.137 798.807 307.353 799.431 307.353C799.911 307.353 800.311 307.241 800.631 307.017C800.951 306.793 801.171 306.473 801.291 306.057H802.467C802.291 306.729 801.939 307.269 801.411 307.677C800.883 308.077 800.223 308.277 799.431 308.277C798.807 308.277 798.251 308.137 797.763 307.857C797.283 307.577 796.907 307.181 796.635 306.669C796.363 306.157 796.227 305.557 796.227 304.869ZM809.924 304.629C809.924 304.837 809.912 305.057 809.888 305.289H804.632C804.672 305.937 804.892 306.445 805.292 306.813C805.7 307.173 806.192 307.353 806.768 307.353C807.24 307.353 807.632 307.245 807.944 307.029C808.264 306.805 808.488 306.509 808.616 306.141H809.792C809.616 306.773 809.264 307.289 808.736 307.689C808.208 308.081 807.552 308.277 806.768 308.277C806.144 308.277 805.584 308.137 805.088 307.857C804.6 307.577 804.216 307.181 803.936 306.669C803.656 306.149 803.516 305.549 803.516 304.869C803.516 304.189 803.652 303.593 803.924 303.081C804.196 302.569 804.576 302.177 805.064 301.905C805.56 301.625 806.128 301.485 806.768 301.485C807.392 301.485 807.944 301.621 808.424 301.893C808.904 302.165 809.272 302.541 809.528 303.021C809.792 303.493 809.924 304.029 809.924 304.629ZM808.796 304.401C808.796 303.985 808.704 303.629 808.52 303.333C808.336 303.029 808.084 302.801 807.764 302.649C807.452 302.489 807.104 302.409 806.72 302.409C806.168 302.409 805.696 302.585 805.304 302.937C804.92 303.289 804.7 303.777 804.644 304.401H808.796ZM815.897 302.493V306.369C815.897 306.689 815.965 306.917 816.101 307.053C816.237 307.181 816.473 307.245 816.809 307.245H817.613V308.169H816.629C816.021 308.169 815.565 308.029 815.261 307.749C814.957 307.469 814.805 307.009 814.805 306.369V302.493H813.953V301.593H814.805V299.937H815.897V301.593H817.613V302.493H815.897ZM822.2 301.473C822.696 301.473 823.144 301.581 823.544 301.797C823.944 302.005 824.256 302.321 824.48 302.745C824.712 303.169 824.828 303.685 824.828 304.293V308.169H823.748V304.449C823.748 303.793 823.584 303.293 823.256 302.949C822.928 302.597 822.48 302.421 821.912 302.421C821.336 302.421 820.876 302.601 820.532 302.961C820.196 303.321 820.028 303.845 820.028 304.533V308.169H818.936V299.289H820.028V302.529C820.244 302.193 820.54 301.933 820.916 301.749C821.3 301.565 821.728 301.473 822.2 301.473ZM826.204 304.857C826.204 304.185 826.34 303.597 826.612 303.093C826.884 302.581 827.256 302.185 827.728 301.905C828.208 301.625 828.74 301.485 829.324 301.485C829.9 301.485 830.4 301.609 830.824 301.857C831.248 302.105 831.564 302.417 831.772 302.793V301.593H832.876V308.169H831.772V306.945C831.556 307.329 831.232 307.649 830.8 307.905C830.376 308.153 829.88 308.277 829.312 308.277C828.728 308.277 828.2 308.133 827.728 307.845C827.256 307.557 826.884 307.153 826.612 306.633C826.34 306.113 826.204 305.521 826.204 304.857ZM831.772 304.869C831.772 304.373 831.672 303.941 831.472 303.573C831.272 303.205 831 302.925 830.656 302.733C830.32 302.533 829.948 302.433 829.54 302.433C829.132 302.433 828.76 302.529 828.424 302.721C828.088 302.913 827.82 303.193 827.62 303.561C827.42 303.929 827.32 304.361 827.32 304.857C827.32 305.361 827.42 305.801 827.62 306.177C827.82 306.545 828.088 306.829 828.424 307.029C828.76 307.221 829.132 307.317 829.54 307.317C829.948 307.317 830.32 307.221 830.656 307.029C831 306.829 831.272 306.545 831.472 306.177C831.672 305.801 831.772 305.365 831.772 304.869ZM837.925 301.473C838.725 301.473 839.373 301.717 839.869 302.205C840.365 302.685 840.613 303.381 840.613 304.293V308.169H839.533V304.449C839.533 303.793 839.369 303.293 839.041 302.949C838.713 302.597 838.265 302.421 837.697 302.421C837.121 302.421 836.661 302.601 836.317 302.961C835.981 303.321 835.813 303.845 835.813 304.533V308.169H834.721V301.593H835.813V302.529C836.029 302.193 836.321 301.933 836.689 301.749C837.065 301.565 837.477 301.473 837.925 301.473ZM846.069 308.169L843.489 305.265V308.169H842.397V299.289H843.489V304.509L846.021 301.593H847.545L844.449 304.869L847.557 308.169H846.069ZM857.436 301.593L853.476 311.265H852.348L853.644 308.097L850.992 301.593H852.204L854.268 306.921L856.308 301.593H857.436ZM861.401 308.277C860.785 308.277 860.225 308.137 859.721 307.857C859.225 307.577 858.833 307.181 858.545 306.669C858.265 306.149 858.125 305.549 858.125 304.869C858.125 304.197 858.269 303.605 858.557 303.093C858.853 302.573 859.253 302.177 859.757 301.905C860.261 301.625 860.825 301.485 861.449 301.485C862.073 301.485 862.637 301.625 863.141 301.905C863.645 302.177 864.041 302.569 864.329 303.081C864.625 303.593 864.773 304.189 864.773 304.869C864.773 305.549 864.621 306.149 864.317 306.669C864.021 307.181 863.617 307.577 863.105 307.857C862.593 308.137 862.025 308.277 861.401 308.277ZM861.401 307.317C861.793 307.317 862.161 307.225 862.505 307.041C862.849 306.857 863.125 306.581 863.333 306.213C863.549 305.845 863.657 305.397 863.657 304.869C863.657 304.341 863.553 303.893 863.345 303.525C863.137 303.157 862.865 302.885 862.529 302.709C862.193 302.525 861.829 302.433 861.437 302.433C861.037 302.433 860.669 302.525 860.333 302.709C860.005 302.885 859.741 303.157 859.541 303.525C859.341 303.893 859.241 304.341 859.241 304.869C859.241 305.405 859.337 305.857 859.529 306.225C859.729 306.593 859.993 306.869 860.321 307.053C860.649 307.229 861.009 307.317 861.401 307.317ZM872.041 301.593V308.169H870.949V307.197C870.741 307.533 870.449 307.797 870.073 307.989C869.705 308.173 869.297 308.265 868.849 308.265C868.337 308.265 867.877 308.161 867.469 307.953C867.061 307.737 866.737 307.417 866.497 306.993C866.265 306.569 866.149 306.053 866.149 305.445V301.593H867.229V305.301C867.229 305.949 867.393 306.449 867.721 306.801C868.049 307.145 868.497 307.317 869.065 307.317C869.649 307.317 870.109 307.137 870.445 306.777C870.781 306.417 870.949 305.893 870.949 305.205V301.593H872.041ZM874.233 308.241C874.025 308.241 873.849 308.169 873.705 308.025C873.561 307.881 873.489 307.705 873.489 307.497C873.489 307.289 873.561 307.113 873.705 306.969C873.849 306.825 874.025 306.753 874.233 306.753C874.433 306.753 874.601 306.825 874.737 306.969C874.881 307.113 874.953 307.289 874.953 307.497C874.953 307.705 874.881 307.881 874.737 308.025C874.601 308.169 874.433 308.241 874.233 308.241Z" fill="#333333"/>
<path d="M588.746 266.941L586.546 267.841C586.046 268.041 585.446 267.841 585.246 267.341C585.146 267.141 585.146 267.041 585.146 266.841L585.346 264.441C585.346 264.141 585.246 263.941 585.146 263.741L583.546 261.941C583.246 261.541 583.246 260.841 583.646 260.541C583.846 260.441 583.946 260.341 584.146 260.341L586.446 259.841C586.746 259.741 586.946 259.641 587.046 259.341L588.246 257.341C588.546 256.841 589.146 256.741 589.646 257.041C589.746 257.141 589.946 257.241 589.946 257.341L591.146 259.341C591.246 259.541 591.546 259.741 591.746 259.841L594.146 260.341C594.646 260.441 595.046 261.041 594.846 261.541C594.846 261.741 594.746 261.841 594.646 261.941L593.146 263.741C592.946 263.941 592.846 264.241 592.946 264.441L593.146 266.841C593.146 267.441 592.746 267.841 592.246 267.941C592.046 267.941 591.946 267.941 591.746 267.841L589.546 266.941C589.246 266.841 589.046 266.841 588.746 266.941Z" fill="url(#paint2_linear_734_6)"/>
<path d="M605.062 266.941L602.862 267.841C602.362 268.041 601.762 267.841 601.562 267.341C601.462 267.141 601.462 267.041 601.462 266.841L601.662 264.441C601.662 264.141 601.562 263.941 601.462 263.741L599.862 261.941C599.562 261.541 599.562 260.841 599.962 260.541C600.162 260.441 600.262 260.341 600.462 260.341L602.762 259.841C603.062 259.741 603.262 259.641 603.362 259.341L604.562 257.341C604.862 256.841 605.462 256.741 605.962 257.041C606.062 257.141 606.262 257.241 606.262 257.341L607.462 259.341C607.562 259.541 607.862 259.741 608.062 259.841L610.462 260.341C610.962 260.441 611.362 261.041 611.162 261.541C611.162 261.741 611.062 261.841 610.962 261.941L609.462 263.741C609.262 263.941 609.162 264.241 609.262 264.441L609.462 266.841C609.462 267.441 609.062 267.841 608.562 267.941C608.362 267.941 608.262 267.941 608.062 267.841L605.862 266.941C605.562 266.841 605.362 266.841 605.062 266.941Z" fill="url(#paint3_linear_734_6)"/>
<path d="M621.379 266.941L619.179 267.841C618.679 268.041 618.079 267.841 617.879 267.341C617.779 267.141 617.779 267.041 617.779 266.841L617.979 264.441C617.979 264.141 617.879 263.941 617.779 263.741L616.179 261.941C615.879 261.541 615.879 260.841 616.279 260.541C616.479 260.441 616.579 260.341 616.779 260.341L619.079 259.841C619.379 259.741 619.579 259.641 619.679 259.341L620.879 257.341C621.179 256.841 621.779 256.741 622.279 257.041C622.379 257.141 622.579 257.241 622.579 257.341L623.779 259.341C623.879 259.541 624.179 259.741 624.379 259.841L626.779 260.341C627.279 260.441 627.679 261.041 627.479 261.541C627.479 261.741 627.379 261.841 627.279 261.941L625.779 263.741C625.579 263.941 625.479 264.241 625.579 264.441L625.779 266.841C625.779 267.441 625.379 267.841 624.879 267.941C624.679 267.941 624.579 267.941 624.379 267.841L622.179 266.941C621.879 266.841 621.679 266.841 621.379 266.941Z" fill="url(#paint4_linear_734_6)"/>
<path d="M637.695 266.941L635.495 267.841C634.995 268.041 634.395 267.841 634.195 267.341C634.095 267.141 634.095 267.041 634.095 266.841L634.295 264.441C634.295 264.141 634.195 263.941 634.095 263.741L632.495 261.941C632.195 261.541 632.195 260.841 632.595 260.541C632.795 260.441 632.895 260.341 633.095 260.341L635.395 259.841C635.695 259.741 635.895 259.641 635.995 259.341L637.195 257.341C637.495 256.841 638.095 256.741 638.595 257.041C638.695 257.141 638.895 257.241 638.895 257.341L640.095 259.341C640.195 259.541 640.495 259.741 640.695 259.841L643.095 260.341C643.595 260.441 643.995 261.041 643.795 261.541C643.795 261.741 643.695 261.841 643.595 261.941L642.095 263.741C641.895 263.941 641.795 264.241 641.895 264.441L642.095 266.841C642.095 267.441 641.695 267.841 641.195 267.941C640.995 267.941 640.895 267.941 640.695 267.841L638.495 266.941C638.195 266.841 637.995 266.841 637.695 266.941Z" fill="url(#paint5_linear_734_6)"/>
<path d="M654.012 266.941L651.811 267.841C651.311 268.041 650.712 267.841 650.512 267.341C650.412 267.141 650.412 267.041 650.412 266.841L650.611 264.441C650.611 264.141 650.512 263.941 650.412 263.741L648.812 261.941C648.512 261.541 648.512 260.841 648.912 260.541C649.112 260.441 649.212 260.341 649.412 260.341L651.712 259.841C652.012 259.741 652.211 259.641 652.311 259.341L653.512 257.341C653.812 256.841 654.411 256.741 654.911 257.041C655.011 257.141 655.212 257.241 655.212 257.341L656.411 259.341C656.511 259.541 656.812 259.741 657.012 259.841L659.411 260.341C659.911 260.441 660.312 261.041 660.112 261.541C660.112 261.741 660.012 261.841 659.911 261.941L658.411 263.741C658.212 263.941 658.111 264.241 658.211 264.441L658.411 266.841C658.411 267.441 658.012 267.841 657.512 267.941C657.312 267.941 657.212 267.941 657.012 267.841L654.811 266.941C654.511 266.841 654.312 266.841 654.012 266.941Z" fill="url(#paint6_linear_734_6)"/>
<defs>
<linearGradient id="paint0_linear_734_6" x1="938.2" y1="228.906" x2="939.554" y2="271.421" gradientUnits="userSpaceOnUse">
<stop stop-color="#FD749B"/>
<stop offset="1" stop-color="#281AC8"/>
</linearGradient>
<linearGradient id="paint1_linear_734_6" x1="937.525" y1="235.501" x2="938.61" y2="260.01" gradientUnits="userSpaceOnUse">
<stop stop-color="#FD749B"/>
<stop offset="1" stop-color="#281AC8"/>
</linearGradient>
<linearGradient id="paint2_linear_734_6" x1="589.694" y1="255.13" x2="590.291" y2="274.739" gradientUnits="userSpaceOnUse">
<stop stop-color="#FD749B"/>
<stop offset="1" stop-color="#281AC8"/>
</linearGradient>
<linearGradient id="paint3_linear_734_6" x1="606.01" y1="255.13" x2="606.608" y2="274.739" gradientUnits="userSpaceOnUse">
<stop stop-color="#FD749B"/>
<stop offset="1" stop-color="#281AC8"/>
</linearGradient>
<linearGradient id="paint4_linear_734_6" x1="622.326" y1="255.13" x2="622.924" y2="274.739" gradientUnits="userSpaceOnUse">
<stop stop-color="#FD749B"/>
<stop offset="1" stop-color="#281AC8"/>
</linearGradient>
<linearGradient id="paint5_linear_734_6" x1="638.643" y1="255.13" x2="639.24" y2="274.739" gradientUnits="userSpaceOnUse">
<stop stop-color="#FD749B"/>
<stop offset="1" stop-color="#281AC8"/>
</linearGradient>
<linearGradient id="paint6_linear_734_6" x1="654.959" y1="255.13" x2="655.557" y2="274.739" gradientUnits="userSpaceOnUse">
<stop stop-color="#FD749B"/>
<stop offset="1" stop-color="#281AC8"/>
</linearGradient>
</defs>
</svg>
