<svg width="114" height="25" viewBox="0 0 114 25" fill="none" xmlns="http://www.w3.org/2000/svg">
<mask id="path-1-outside-1_32_2752" maskUnits="userSpaceOnUse" x="36.0112" y="8.37451" width="78" height="14" fill="black">
<rect fill="white" x="36.0112" y="8.37451" width="78" height="14"/>
<path d="M37.0112 16.0961C37.0112 14.9867 37.2629 13.9915 37.7662 13.1105C38.2695 12.2187 38.9534 11.5226 39.8178 11.0223C40.6932 10.522 41.6615 10.2718 42.7229 10.2718C43.9703 10.2718 45.059 10.5709 45.989 11.1691C46.9191 11.7673 47.5975 12.6157 48.0242 13.7142H46.2352C45.9179 13.029 45.4583 12.5015 44.8565 12.1317C44.2657 11.7619 43.5545 11.577 42.7229 11.577C41.9241 11.577 41.2074 11.7619 40.5728 12.1317C39.9382 12.5015 39.4403 13.029 39.0792 13.7142C38.7182 14.3885 38.5376 15.1825 38.5376 16.0961C38.5376 16.9989 38.7182 17.7928 39.0792 18.478C39.4403 19.1524 39.9382 19.6744 40.5728 20.0442C41.2074 20.414 41.9241 20.5989 42.7229 20.5989C43.5545 20.5989 44.2657 20.4195 44.8565 20.0606C45.4583 19.6908 45.9179 19.1633 46.2352 18.478H48.0242C47.5975 19.5657 46.9191 20.4086 45.989 21.0068C45.059 21.5941 43.9703 21.8878 42.7229 21.8878C41.6615 21.8878 40.6932 21.6431 39.8178 21.1536C38.9534 20.6533 38.2695 19.9627 37.7662 19.0817C37.2629 18.2007 37.0112 17.2055 37.0112 16.0961Z"/>
<path d="M54.1702 21.9367C53.3276 21.9367 52.5617 21.7464 51.8724 21.3657C51.194 20.985 50.6578 20.4467 50.2639 19.7506C49.881 19.0436 49.6895 18.2279 49.6895 17.3034C49.6895 16.3898 49.8864 15.5849 50.2803 14.8888C50.6852 14.1819 51.2323 13.6435 51.9216 13.2737C52.611 12.893 53.3824 12.7027 54.2358 12.7027C55.0893 12.7027 55.8607 12.893 56.55 13.2737C57.2394 13.6435 57.781 14.1764 58.1749 14.8725C58.5797 15.5686 58.7822 16.3789 58.7822 17.3034C58.7822 18.2279 58.5743 19.0436 58.1585 19.7506C57.7536 20.4467 57.2011 20.985 56.5008 21.3657C55.8005 21.7464 55.0236 21.9367 54.1702 21.9367ZM54.1702 20.6316C54.7063 20.6316 55.2096 20.5065 55.6801 20.2563C56.1506 20.0062 56.5281 19.6309 56.8126 19.1306C57.1081 18.6303 57.2558 18.0212 57.2558 17.3034C57.2558 16.5855 57.1135 15.9765 56.829 15.4762C56.5446 14.9758 56.1725 14.606 55.713 14.3668C55.2534 14.1166 54.7556 13.9915 54.2194 13.9915C53.6723 13.9915 53.169 14.1166 52.7094 14.3668C52.2608 14.606 51.8997 14.9758 51.6262 15.4762C51.3526 15.9765 51.2159 16.5855 51.2159 17.3034C51.2159 18.0321 51.3472 18.6466 51.6098 19.1469C51.8833 19.6472 52.2444 20.0225 52.693 20.2726C53.1416 20.5119 53.634 20.6316 54.1702 20.6316Z"/>
<path d="M61.5173 11.3975C61.2328 11.3975 60.9921 11.2996 60.7952 11.1039C60.5982 10.9081 60.4997 10.6688 60.4997 10.386C60.4997 10.1032 60.5982 9.86395 60.7952 9.66817C60.9921 9.4724 61.2328 9.37451 61.5173 9.37451C61.7909 9.37451 62.0207 9.4724 62.2067 9.66817C62.4036 9.86395 62.5021 10.1032 62.5021 10.386C62.5021 10.6688 62.4036 10.9081 62.2067 11.1039C62.0207 11.2996 61.7909 11.3975 61.5173 11.3975ZM62.2395 12.8495V21.7899H60.7459V12.8495H62.2395Z"/>
<path d="M69.1672 12.6864C70.2614 12.6864 71.1477 13.0181 71.8261 13.6816C72.5045 14.3341 72.8437 15.2804 72.8437 16.5203V21.7899H71.3665V16.7324C71.3665 15.8405 71.1422 15.1607 70.6936 14.6931C70.245 14.2145 69.6323 13.9752 68.8554 13.9752C68.0676 13.9752 67.4384 14.2199 66.9679 14.7094C66.5084 15.1988 66.2786 15.9112 66.2786 16.8466V21.7899H64.785V12.8495H66.2786V14.122C66.574 13.6652 66.9734 13.3118 67.4767 13.0616C67.991 12.8114 68.5545 12.6864 69.1672 12.6864Z"/>
<path d="M81.0115 15.933C81.4273 15.9982 81.8048 16.1668 82.144 16.4387C82.4941 16.7106 82.7677 17.0478 82.9646 17.4502C83.1725 17.8526 83.2765 18.2823 83.2765 18.7391C83.2765 19.3155 83.1287 19.8376 82.8333 20.3053C82.5379 20.7621 82.1057 21.1264 81.5367 21.3983C80.9787 21.6594 80.3167 21.7899 79.5508 21.7899H75.2834V10.4186H79.3866C80.1635 10.4186 80.8255 10.5492 81.3726 10.8102C81.9197 11.0603 82.33 11.403 82.6035 11.838C82.8771 12.2731 83.0139 12.7625 83.0139 13.3063C83.0139 13.9807 82.8279 14.5408 82.4558 14.9867C82.0947 15.4218 81.6133 15.7372 81.0115 15.933ZM76.777 15.3293H79.2882C79.9884 15.3293 80.5301 15.1662 80.913 14.8399C81.296 14.5136 81.4875 14.0622 81.4875 13.4858C81.4875 12.9093 81.296 12.458 80.913 12.1317C80.5301 11.8054 79.9775 11.6422 79.2553 11.6422H76.777V15.3293ZM79.4195 20.5663C80.1635 20.5663 80.7434 20.3923 81.1592 20.0442C81.575 19.6962 81.7829 19.2122 81.7829 18.5922C81.7829 17.9614 81.5641 17.4665 81.1264 17.1076C80.6887 16.7378 80.1033 16.5529 79.3702 16.5529H76.777V20.5663H79.4195Z"/>
<path d="M84.7911 17.2871C84.7911 16.3735 84.9771 15.574 85.3491 14.8888C85.7211 14.1927 86.2299 13.6544 86.8755 13.2737C87.532 12.893 88.2596 12.7027 89.0584 12.7027C89.8462 12.7027 90.5301 12.8713 91.11 13.2084C91.6899 13.5456 92.1221 13.9698 92.4066 14.481V12.8495H93.9166V21.7899H92.4066V20.1258C92.1112 20.6479 91.668 21.0829 91.0772 21.431C90.4972 21.7681 89.8188 21.9367 89.042 21.9367C88.2432 21.9367 87.5211 21.741 86.8755 21.3494C86.2299 20.9579 85.7211 20.4086 85.3491 19.7016C84.9771 18.9947 84.7911 18.1898 84.7911 17.2871ZM92.4066 17.3034C92.4066 16.6291 92.2698 16.0417 91.9963 15.5414C91.7227 15.0411 91.3507 14.6604 90.8802 14.3994C90.4206 14.1275 89.9119 13.9915 89.3538 13.9915C88.7958 13.9915 88.287 14.1221 87.8274 14.3831C87.3679 14.6441 87.0013 15.0248 86.7278 15.5251C86.4542 16.0254 86.3174 16.6127 86.3174 17.2871C86.3174 17.9723 86.4542 18.5705 86.7278 19.0817C87.0013 19.582 87.3679 19.9681 87.8274 20.24C88.287 20.501 88.7958 20.6316 89.3538 20.6316C89.9119 20.6316 90.4206 20.501 90.8802 20.24C91.3507 19.9681 91.7227 19.582 91.9963 19.0817C92.2698 18.5705 92.4066 17.9777 92.4066 17.3034Z"/>
<path d="M99.6246 21.9367C98.9353 21.9367 98.3171 21.8225 97.77 21.5941C97.2229 21.3548 96.7907 21.0285 96.4734 20.6152C96.1561 20.1911 95.981 19.7071 95.9482 19.1633H97.491C97.5347 19.6092 97.7426 19.9735 98.1147 20.2563C98.4976 20.5391 98.9955 20.6805 99.6082 20.6805C100.177 20.6805 100.626 20.5554 100.954 20.3053C101.282 20.0551 101.446 19.7397 101.446 19.359C101.446 18.9675 101.271 18.6793 100.921 18.4944C100.571 18.2986 100.029 18.1082 99.2964 17.9233C98.6289 17.7493 98.0818 17.5753 97.6551 17.4013C97.2393 17.2164 96.8782 16.9499 96.5719 16.6019C96.2764 16.2429 96.1287 15.7753 96.1287 15.1988C96.1287 14.742 96.2655 14.3233 96.539 13.9426C96.8126 13.5619 97.201 13.2628 97.7043 13.0453C98.2077 12.8169 98.7821 12.7027 99.4277 12.7027C100.423 12.7027 101.228 12.9528 101.84 13.4532C102.453 13.9535 102.781 14.6387 102.825 15.5088H101.332C101.299 15.0411 101.107 14.6659 100.757 14.3831C100.418 14.1003 99.9584 13.9589 99.3784 13.9589C98.8423 13.9589 98.4156 14.0731 98.0982 14.3015C97.7809 14.5299 97.6223 14.829 97.6223 15.1988C97.6223 15.4925 97.7153 15.7372 97.9013 15.933C98.0982 16.1179 98.339 16.2701 98.6235 16.3898C98.9189 16.4985 99.3237 16.6236 99.838 16.765C100.484 16.939 101.009 17.1131 101.414 17.2871C101.818 17.4502 102.163 17.7004 102.448 18.0375C102.743 18.3747 102.896 18.8152 102.907 19.359C102.907 19.8485 102.77 20.289 102.497 20.6805C102.223 21.0721 101.835 21.382 101.332 21.6104C100.839 21.828 100.27 21.9367 99.6246 21.9367Z"/>
<path d="M113.222 16.9771C113.222 17.2599 113.206 17.559 113.173 17.8744H105.984C106.039 18.7554 106.34 19.446 106.887 19.9463C107.445 20.4358 108.118 20.6805 108.905 20.6805C109.551 20.6805 110.087 20.5337 110.514 20.24C110.952 19.9355 111.258 19.533 111.433 19.0327H113.041C112.801 19.892 112.319 20.5935 111.597 21.1373C110.875 21.6703 109.978 21.9367 108.905 21.9367C108.052 21.9367 107.286 21.7464 106.608 21.3657C105.94 20.985 105.415 20.4467 105.032 19.7506C104.649 19.0436 104.458 18.2279 104.458 17.3034C104.458 16.3789 104.644 15.5686 105.016 14.8725C105.388 14.1764 105.907 13.6435 106.575 13.2737C107.253 12.893 108.03 12.7027 108.905 12.7027C109.759 12.7027 110.514 12.8876 111.17 13.2574C111.827 13.6272 112.33 14.1384 112.68 14.7909C113.041 15.4327 113.222 16.1614 113.222 16.9771ZM111.679 16.6671C111.679 16.1016 111.553 15.6176 111.302 15.2151C111.05 14.8018 110.705 14.4918 110.268 14.2852C109.841 14.0677 109.365 13.9589 108.84 13.9589C108.085 13.9589 107.439 14.1982 106.903 14.6767C106.378 15.1553 106.077 15.8188 106 16.6671H111.679Z"/>
</mask>
<path d="M37.0112 16.0961C37.0112 14.9867 37.2629 13.9915 37.7662 13.1105C38.2695 12.2187 38.9534 11.5226 39.8178 11.0223C40.6932 10.522 41.6615 10.2718 42.7229 10.2718C43.9703 10.2718 45.059 10.5709 45.989 11.1691C46.9191 11.7673 47.5975 12.6157 48.0242 13.7142H46.2352C45.9179 13.029 45.4583 12.5015 44.8565 12.1317C44.2657 11.7619 43.5545 11.577 42.7229 11.577C41.9241 11.577 41.2074 11.7619 40.5728 12.1317C39.9382 12.5015 39.4403 13.029 39.0792 13.7142C38.7182 14.3885 38.5376 15.1825 38.5376 16.0961C38.5376 16.9989 38.7182 17.7928 39.0792 18.478C39.4403 19.1524 39.9382 19.6744 40.5728 20.0442C41.2074 20.414 41.9241 20.5989 42.7229 20.5989C43.5545 20.5989 44.2657 20.4195 44.8565 20.0606C45.4583 19.6908 45.9179 19.1633 46.2352 18.478H48.0242C47.5975 19.5657 46.9191 20.4086 45.989 21.0068C45.059 21.5941 43.9703 21.8878 42.7229 21.8878C41.6615 21.8878 40.6932 21.6431 39.8178 21.1536C38.9534 20.6533 38.2695 19.9627 37.7662 19.0817C37.2629 18.2007 37.0112 17.2055 37.0112 16.0961Z" fill="white"/>
<path d="M54.1702 21.9367C53.3276 21.9367 52.5617 21.7464 51.8724 21.3657C51.194 20.985 50.6578 20.4467 50.2639 19.7506C49.881 19.0436 49.6895 18.2279 49.6895 17.3034C49.6895 16.3898 49.8864 15.5849 50.2803 14.8888C50.6852 14.1819 51.2323 13.6435 51.9216 13.2737C52.611 12.893 53.3824 12.7027 54.2358 12.7027C55.0893 12.7027 55.8607 12.893 56.55 13.2737C57.2394 13.6435 57.781 14.1764 58.1749 14.8725C58.5797 15.5686 58.7822 16.3789 58.7822 17.3034C58.7822 18.2279 58.5743 19.0436 58.1585 19.7506C57.7536 20.4467 57.2011 20.985 56.5008 21.3657C55.8005 21.7464 55.0236 21.9367 54.1702 21.9367ZM54.1702 20.6316C54.7063 20.6316 55.2096 20.5065 55.6801 20.2563C56.1506 20.0062 56.5281 19.6309 56.8126 19.1306C57.1081 18.6303 57.2558 18.0212 57.2558 17.3034C57.2558 16.5855 57.1135 15.9765 56.829 15.4762C56.5446 14.9758 56.1725 14.606 55.713 14.3668C55.2534 14.1166 54.7556 13.9915 54.2194 13.9915C53.6723 13.9915 53.169 14.1166 52.7094 14.3668C52.2608 14.606 51.8997 14.9758 51.6262 15.4762C51.3526 15.9765 51.2159 16.5855 51.2159 17.3034C51.2159 18.0321 51.3472 18.6466 51.6098 19.1469C51.8833 19.6472 52.2444 20.0225 52.693 20.2726C53.1416 20.5119 53.634 20.6316 54.1702 20.6316Z" fill="white"/>
<path d="M61.5173 11.3975C61.2328 11.3975 60.9921 11.2996 60.7952 11.1039C60.5982 10.9081 60.4997 10.6688 60.4997 10.386C60.4997 10.1032 60.5982 9.86395 60.7952 9.66817C60.9921 9.4724 61.2328 9.37451 61.5173 9.37451C61.7909 9.37451 62.0207 9.4724 62.2067 9.66817C62.4036 9.86395 62.5021 10.1032 62.5021 10.386C62.5021 10.6688 62.4036 10.9081 62.2067 11.1039C62.0207 11.2996 61.7909 11.3975 61.5173 11.3975ZM62.2395 12.8495V21.7899H60.7459V12.8495H62.2395Z" fill="white"/>
<path d="M69.1672 12.6864C70.2614 12.6864 71.1477 13.0181 71.8261 13.6816C72.5045 14.3341 72.8437 15.2804 72.8437 16.5203V21.7899H71.3665V16.7324C71.3665 15.8405 71.1422 15.1607 70.6936 14.6931C70.245 14.2145 69.6323 13.9752 68.8554 13.9752C68.0676 13.9752 67.4384 14.2199 66.9679 14.7094C66.5084 15.1988 66.2786 15.9112 66.2786 16.8466V21.7899H64.785V12.8495H66.2786V14.122C66.574 13.6652 66.9734 13.3118 67.4767 13.0616C67.991 12.8114 68.5545 12.6864 69.1672 12.6864Z" fill="white"/>
<path d="M81.0115 15.933C81.4273 15.9982 81.8048 16.1668 82.144 16.4387C82.4941 16.7106 82.7677 17.0478 82.9646 17.4502C83.1725 17.8526 83.2765 18.2823 83.2765 18.7391C83.2765 19.3155 83.1287 19.8376 82.8333 20.3053C82.5379 20.7621 82.1057 21.1264 81.5367 21.3983C80.9787 21.6594 80.3167 21.7899 79.5508 21.7899H75.2834V10.4186H79.3866C80.1635 10.4186 80.8255 10.5492 81.3726 10.8102C81.9197 11.0603 82.33 11.403 82.6035 11.838C82.8771 12.2731 83.0139 12.7625 83.0139 13.3063C83.0139 13.9807 82.8279 14.5408 82.4558 14.9867C82.0947 15.4218 81.6133 15.7372 81.0115 15.933ZM76.777 15.3293H79.2882C79.9884 15.3293 80.5301 15.1662 80.913 14.8399C81.296 14.5136 81.4875 14.0622 81.4875 13.4858C81.4875 12.9093 81.296 12.458 80.913 12.1317C80.5301 11.8054 79.9775 11.6422 79.2553 11.6422H76.777V15.3293ZM79.4195 20.5663C80.1635 20.5663 80.7434 20.3923 81.1592 20.0442C81.575 19.6962 81.7829 19.2122 81.7829 18.5922C81.7829 17.9614 81.5641 17.4665 81.1264 17.1076C80.6887 16.7378 80.1033 16.5529 79.3702 16.5529H76.777V20.5663H79.4195Z" fill="white"/>
<path d="M84.7911 17.2871C84.7911 16.3735 84.9771 15.574 85.3491 14.8888C85.7211 14.1927 86.2299 13.6544 86.8755 13.2737C87.532 12.893 88.2596 12.7027 89.0584 12.7027C89.8462 12.7027 90.5301 12.8713 91.11 13.2084C91.6899 13.5456 92.1221 13.9698 92.4066 14.481V12.8495H93.9166V21.7899H92.4066V20.1258C92.1112 20.6479 91.668 21.0829 91.0772 21.431C90.4972 21.7681 89.8188 21.9367 89.042 21.9367C88.2432 21.9367 87.5211 21.741 86.8755 21.3494C86.2299 20.9579 85.7211 20.4086 85.3491 19.7016C84.9771 18.9947 84.7911 18.1898 84.7911 17.2871ZM92.4066 17.3034C92.4066 16.6291 92.2698 16.0417 91.9963 15.5414C91.7227 15.0411 91.3507 14.6604 90.8802 14.3994C90.4206 14.1275 89.9119 13.9915 89.3538 13.9915C88.7958 13.9915 88.287 14.1221 87.8274 14.3831C87.3679 14.6441 87.0013 15.0248 86.7278 15.5251C86.4542 16.0254 86.3174 16.6127 86.3174 17.2871C86.3174 17.9723 86.4542 18.5705 86.7278 19.0817C87.0013 19.582 87.3679 19.9681 87.8274 20.24C88.287 20.501 88.7958 20.6316 89.3538 20.6316C89.9119 20.6316 90.4206 20.501 90.8802 20.24C91.3507 19.9681 91.7227 19.582 91.9963 19.0817C92.2698 18.5705 92.4066 17.9777 92.4066 17.3034Z" fill="white"/>
<path d="M99.6246 21.9367C98.9353 21.9367 98.3171 21.8225 97.77 21.5941C97.2229 21.3548 96.7907 21.0285 96.4734 20.6152C96.1561 20.1911 95.981 19.7071 95.9482 19.1633H97.491C97.5347 19.6092 97.7426 19.9735 98.1147 20.2563C98.4976 20.5391 98.9955 20.6805 99.6082 20.6805C100.177 20.6805 100.626 20.5554 100.954 20.3053C101.282 20.0551 101.446 19.7397 101.446 19.359C101.446 18.9675 101.271 18.6793 100.921 18.4944C100.571 18.2986 100.029 18.1082 99.2964 17.9233C98.6289 17.7493 98.0818 17.5753 97.6551 17.4013C97.2393 17.2164 96.8782 16.9499 96.5719 16.6019C96.2764 16.2429 96.1287 15.7753 96.1287 15.1988C96.1287 14.742 96.2655 14.3233 96.539 13.9426C96.8126 13.5619 97.201 13.2628 97.7043 13.0453C98.2077 12.8169 98.7821 12.7027 99.4277 12.7027C100.423 12.7027 101.228 12.9528 101.84 13.4532C102.453 13.9535 102.781 14.6387 102.825 15.5088H101.332C101.299 15.0411 101.107 14.6659 100.757 14.3831C100.418 14.1003 99.9584 13.9589 99.3784 13.9589C98.8423 13.9589 98.4156 14.0731 98.0982 14.3015C97.7809 14.5299 97.6223 14.829 97.6223 15.1988C97.6223 15.4925 97.7153 15.7372 97.9013 15.933C98.0982 16.1179 98.339 16.2701 98.6235 16.3898C98.9189 16.4985 99.3237 16.6236 99.838 16.765C100.484 16.939 101.009 17.1131 101.414 17.2871C101.818 17.4502 102.163 17.7004 102.448 18.0375C102.743 18.3747 102.896 18.8152 102.907 19.359C102.907 19.8485 102.77 20.289 102.497 20.6805C102.223 21.0721 101.835 21.382 101.332 21.6104C100.839 21.828 100.27 21.9367 99.6246 21.9367Z" fill="white"/>
<path d="M113.222 16.9771C113.222 17.2599 113.206 17.559 113.173 17.8744H105.984C106.039 18.7554 106.34 19.446 106.887 19.9463C107.445 20.4358 108.118 20.6805 108.905 20.6805C109.551 20.6805 110.087 20.5337 110.514 20.24C110.952 19.9355 111.258 19.533 111.433 19.0327H113.041C112.801 19.892 112.319 20.5935 111.597 21.1373C110.875 21.6703 109.978 21.9367 108.905 21.9367C108.052 21.9367 107.286 21.7464 106.608 21.3657C105.94 20.985 105.415 20.4467 105.032 19.7506C104.649 19.0436 104.458 18.2279 104.458 17.3034C104.458 16.3789 104.644 15.5686 105.016 14.8725C105.388 14.1764 105.907 13.6435 106.575 13.2737C107.253 12.893 108.03 12.7027 108.905 12.7027C109.759 12.7027 110.514 12.8876 111.17 13.2574C111.827 13.6272 112.33 14.1384 112.68 14.7909C113.041 15.4327 113.222 16.1614 113.222 16.9771ZM111.679 16.6671C111.679 16.1016 111.553 15.6176 111.302 15.2151C111.05 14.8018 110.705 14.4918 110.268 14.2852C109.841 14.0677 109.365 13.9589 108.84 13.9589C108.085 13.9589 107.439 14.1982 106.903 14.6767C106.378 15.1553 106.077 15.8188 106 16.6671H111.679Z" fill="white"/>
<path d="M37.0112 16.0961C37.0112 14.9867 37.2629 13.9915 37.7662 13.1105C38.2695 12.2187 38.9534 11.5226 39.8178 11.0223C40.6932 10.522 41.6615 10.2718 42.7229 10.2718C43.9703 10.2718 45.059 10.5709 45.989 11.1691C46.9191 11.7673 47.5975 12.6157 48.0242 13.7142H46.2352C45.9179 13.029 45.4583 12.5015 44.8565 12.1317C44.2657 11.7619 43.5545 11.577 42.7229 11.577C41.9241 11.577 41.2074 11.7619 40.5728 12.1317C39.9382 12.5015 39.4403 13.029 39.0792 13.7142C38.7182 14.3885 38.5376 15.1825 38.5376 16.0961C38.5376 16.9989 38.7182 17.7928 39.0792 18.478C39.4403 19.1524 39.9382 19.6744 40.5728 20.0442C41.2074 20.414 41.9241 20.5989 42.7229 20.5989C43.5545 20.5989 44.2657 20.4195 44.8565 20.0606C45.4583 19.6908 45.9179 19.1633 46.2352 18.478H48.0242C47.5975 19.5657 46.9191 20.4086 45.989 21.0068C45.059 21.5941 43.9703 21.8878 42.7229 21.8878C41.6615 21.8878 40.6932 21.6431 39.8178 21.1536C38.9534 20.6533 38.2695 19.9627 37.7662 19.0817C37.2629 18.2007 37.0112 17.2055 37.0112 16.0961Z" stroke="white" stroke-width="0.4" mask="url(#path-1-outside-1_32_2752)"/>
<path d="M54.1702 21.9367C53.3276 21.9367 52.5617 21.7464 51.8724 21.3657C51.194 20.985 50.6578 20.4467 50.2639 19.7506C49.881 19.0436 49.6895 18.2279 49.6895 17.3034C49.6895 16.3898 49.8864 15.5849 50.2803 14.8888C50.6852 14.1819 51.2323 13.6435 51.9216 13.2737C52.611 12.893 53.3824 12.7027 54.2358 12.7027C55.0893 12.7027 55.8607 12.893 56.55 13.2737C57.2394 13.6435 57.781 14.1764 58.1749 14.8725C58.5797 15.5686 58.7822 16.3789 58.7822 17.3034C58.7822 18.2279 58.5743 19.0436 58.1585 19.7506C57.7536 20.4467 57.2011 20.985 56.5008 21.3657C55.8005 21.7464 55.0236 21.9367 54.1702 21.9367ZM54.1702 20.6316C54.7063 20.6316 55.2096 20.5065 55.6801 20.2563C56.1506 20.0062 56.5281 19.6309 56.8126 19.1306C57.1081 18.6303 57.2558 18.0212 57.2558 17.3034C57.2558 16.5855 57.1135 15.9765 56.829 15.4762C56.5446 14.9758 56.1725 14.606 55.713 14.3668C55.2534 14.1166 54.7556 13.9915 54.2194 13.9915C53.6723 13.9915 53.169 14.1166 52.7094 14.3668C52.2608 14.606 51.8997 14.9758 51.6262 15.4762C51.3526 15.9765 51.2159 16.5855 51.2159 17.3034C51.2159 18.0321 51.3472 18.6466 51.6098 19.1469C51.8833 19.6472 52.2444 20.0225 52.693 20.2726C53.1416 20.5119 53.634 20.6316 54.1702 20.6316Z" stroke="white" stroke-width="0.4" mask="url(#path-1-outside-1_32_2752)"/>
<path d="M61.5173 11.3975C61.2328 11.3975 60.9921 11.2996 60.7952 11.1039C60.5982 10.9081 60.4997 10.6688 60.4997 10.386C60.4997 10.1032 60.5982 9.86395 60.7952 9.66817C60.9921 9.4724 61.2328 9.37451 61.5173 9.37451C61.7909 9.37451 62.0207 9.4724 62.2067 9.66817C62.4036 9.86395 62.5021 10.1032 62.5021 10.386C62.5021 10.6688 62.4036 10.9081 62.2067 11.1039C62.0207 11.2996 61.7909 11.3975 61.5173 11.3975ZM62.2395 12.8495V21.7899H60.7459V12.8495H62.2395Z" stroke="white" stroke-width="0.4" mask="url(#path-1-outside-1_32_2752)"/>
<path d="M69.1672 12.6864C70.2614 12.6864 71.1477 13.0181 71.8261 13.6816C72.5045 14.3341 72.8437 15.2804 72.8437 16.5203V21.7899H71.3665V16.7324C71.3665 15.8405 71.1422 15.1607 70.6936 14.6931C70.245 14.2145 69.6323 13.9752 68.8554 13.9752C68.0676 13.9752 67.4384 14.2199 66.9679 14.7094C66.5084 15.1988 66.2786 15.9112 66.2786 16.8466V21.7899H64.785V12.8495H66.2786V14.122C66.574 13.6652 66.9734 13.3118 67.4767 13.0616C67.991 12.8114 68.5545 12.6864 69.1672 12.6864Z" stroke="white" stroke-width="0.4" mask="url(#path-1-outside-1_32_2752)"/>
<path d="M81.0115 15.933C81.4273 15.9982 81.8048 16.1668 82.144 16.4387C82.4941 16.7106 82.7677 17.0478 82.9646 17.4502C83.1725 17.8526 83.2765 18.2823 83.2765 18.7391C83.2765 19.3155 83.1287 19.8376 82.8333 20.3053C82.5379 20.7621 82.1057 21.1264 81.5367 21.3983C80.9787 21.6594 80.3167 21.7899 79.5508 21.7899H75.2834V10.4186H79.3866C80.1635 10.4186 80.8255 10.5492 81.3726 10.8102C81.9197 11.0603 82.33 11.403 82.6035 11.838C82.8771 12.2731 83.0139 12.7625 83.0139 13.3063C83.0139 13.9807 82.8279 14.5408 82.4558 14.9867C82.0947 15.4218 81.6133 15.7372 81.0115 15.933ZM76.777 15.3293H79.2882C79.9884 15.3293 80.5301 15.1662 80.913 14.8399C81.296 14.5136 81.4875 14.0622 81.4875 13.4858C81.4875 12.9093 81.296 12.458 80.913 12.1317C80.5301 11.8054 79.9775 11.6422 79.2553 11.6422H76.777V15.3293ZM79.4195 20.5663C80.1635 20.5663 80.7434 20.3923 81.1592 20.0442C81.575 19.6962 81.7829 19.2122 81.7829 18.5922C81.7829 17.9614 81.5641 17.4665 81.1264 17.1076C80.6887 16.7378 80.1033 16.5529 79.3702 16.5529H76.777V20.5663H79.4195Z" stroke="white" stroke-width="0.4" mask="url(#path-1-outside-1_32_2752)"/>
<path d="M84.7911 17.2871C84.7911 16.3735 84.9771 15.574 85.3491 14.8888C85.7211 14.1927 86.2299 13.6544 86.8755 13.2737C87.532 12.893 88.2596 12.7027 89.0584 12.7027C89.8462 12.7027 90.5301 12.8713 91.11 13.2084C91.6899 13.5456 92.1221 13.9698 92.4066 14.481V12.8495H93.9166V21.7899H92.4066V20.1258C92.1112 20.6479 91.668 21.0829 91.0772 21.431C90.4972 21.7681 89.8188 21.9367 89.042 21.9367C88.2432 21.9367 87.5211 21.741 86.8755 21.3494C86.2299 20.9579 85.7211 20.4086 85.3491 19.7016C84.9771 18.9947 84.7911 18.1898 84.7911 17.2871ZM92.4066 17.3034C92.4066 16.6291 92.2698 16.0417 91.9963 15.5414C91.7227 15.0411 91.3507 14.6604 90.8802 14.3994C90.4206 14.1275 89.9119 13.9915 89.3538 13.9915C88.7958 13.9915 88.287 14.1221 87.8274 14.3831C87.3679 14.6441 87.0013 15.0248 86.7278 15.5251C86.4542 16.0254 86.3174 16.6127 86.3174 17.2871C86.3174 17.9723 86.4542 18.5705 86.7278 19.0817C87.0013 19.582 87.3679 19.9681 87.8274 20.24C88.287 20.501 88.7958 20.6316 89.3538 20.6316C89.9119 20.6316 90.4206 20.501 90.8802 20.24C91.3507 19.9681 91.7227 19.582 91.9963 19.0817C92.2698 18.5705 92.4066 17.9777 92.4066 17.3034Z" stroke="white" stroke-width="0.4" mask="url(#path-1-outside-1_32_2752)"/>
<path d="M99.6246 21.9367C98.9353 21.9367 98.3171 21.8225 97.77 21.5941C97.2229 21.3548 96.7907 21.0285 96.4734 20.6152C96.1561 20.1911 95.981 19.7071 95.9482 19.1633H97.491C97.5347 19.6092 97.7426 19.9735 98.1147 20.2563C98.4976 20.5391 98.9955 20.6805 99.6082 20.6805C100.177 20.6805 100.626 20.5554 100.954 20.3053C101.282 20.0551 101.446 19.7397 101.446 19.359C101.446 18.9675 101.271 18.6793 100.921 18.4944C100.571 18.2986 100.029 18.1082 99.2964 17.9233C98.6289 17.7493 98.0818 17.5753 97.6551 17.4013C97.2393 17.2164 96.8782 16.9499 96.5719 16.6019C96.2764 16.2429 96.1287 15.7753 96.1287 15.1988C96.1287 14.742 96.2655 14.3233 96.539 13.9426C96.8126 13.5619 97.201 13.2628 97.7043 13.0453C98.2077 12.8169 98.7821 12.7027 99.4277 12.7027C100.423 12.7027 101.228 12.9528 101.84 13.4532C102.453 13.9535 102.781 14.6387 102.825 15.5088H101.332C101.299 15.0411 101.107 14.6659 100.757 14.3831C100.418 14.1003 99.9584 13.9589 99.3784 13.9589C98.8423 13.9589 98.4156 14.0731 98.0982 14.3015C97.7809 14.5299 97.6223 14.829 97.6223 15.1988C97.6223 15.4925 97.7153 15.7372 97.9013 15.933C98.0982 16.1179 98.339 16.2701 98.6235 16.3898C98.9189 16.4985 99.3237 16.6236 99.838 16.765C100.484 16.939 101.009 17.1131 101.414 17.2871C101.818 17.4502 102.163 17.7004 102.448 18.0375C102.743 18.3747 102.896 18.8152 102.907 19.359C102.907 19.8485 102.77 20.289 102.497 20.6805C102.223 21.0721 101.835 21.382 101.332 21.6104C100.839 21.828 100.27 21.9367 99.6246 21.9367Z" stroke="white" stroke-width="0.4" mask="url(#path-1-outside-1_32_2752)"/>
<path d="M113.222 16.9771C113.222 17.2599 113.206 17.559 113.173 17.8744H105.984C106.039 18.7554 106.34 19.446 106.887 19.9463C107.445 20.4358 108.118 20.6805 108.905 20.6805C109.551 20.6805 110.087 20.5337 110.514 20.24C110.952 19.9355 111.258 19.533 111.433 19.0327H113.041C112.801 19.892 112.319 20.5935 111.597 21.1373C110.875 21.6703 109.978 21.9367 108.905 21.9367C108.052 21.9367 107.286 21.7464 106.608 21.3657C105.94 20.985 105.415 20.4467 105.032 19.7506C104.649 19.0436 104.458 18.2279 104.458 17.3034C104.458 16.3789 104.644 15.5686 105.016 14.8725C105.388 14.1764 105.907 13.6435 106.575 13.2737C107.253 12.893 108.03 12.7027 108.905 12.7027C109.759 12.7027 110.514 12.8876 111.17 13.2574C111.827 13.6272 112.33 14.1384 112.68 14.7909C113.041 15.4327 113.222 16.1614 113.222 16.9771ZM111.679 16.6671C111.679 16.1016 111.553 15.6176 111.302 15.2151C111.05 14.8018 110.705 14.4918 110.268 14.2852C109.841 14.0677 109.365 13.9589 108.84 13.9589C108.085 13.9589 107.439 14.1982 106.903 14.6767C106.378 15.1553 106.077 15.8188 106 16.6671H111.679Z" stroke="white" stroke-width="0.4" mask="url(#path-1-outside-1_32_2752)"/>
<path d="M20.1654 23.612H27.4934C29.0717 23.612 30.3118 22.1839 30.3118 20.5177C30.3118 18.8516 29.0717 17.4234 27.4934 17.4234C26.9297 17.4234 26.366 17.4234 25.8023 17.4234C28.0571 12.306 26.9297 1 16.7833 1C10.019 1 6.63689 5.16537 6.63689 13.6151H5.50951C3.02928 13.6151 1 15.8763 1 18.6135C1 21.3508 3.02928 23.612 5.50951 23.612H11.1464H20.1654Z" stroke="white" stroke-width="2" stroke-linecap="round" stroke-linejoin="round"/>
<path d="M16.733 12.1568L14.8326 12.7917L13.8846 9.95378L15.7556 9.32871C16.1443 9.19884 16.5577 9.22562 16.921 9.4029L16.9211 9.40295C17.2845 9.58002 17.5525 9.8854 17.6789 10.2637C17.8053 10.6419 17.7745 11.0468 17.5905 11.4067L17.5904 11.4069C17.4113 11.7582 17.1085 12.0233 16.733 12.1568ZM12.5933 10.3845L12.9886 10.2524L15.3202 17.2317L14.9249 17.3637C14.6816 17.445 14.542 17.7084 14.6253 17.9577C14.7086 18.207 14.9784 18.3335 15.2218 18.2523L16.8773 17.6992L17.0055 18.0829C17.0888 18.3322 17.3586 18.4588 17.6019 18.3775C17.8452 18.2962 17.9848 18.0328 17.9015 17.7835L17.7733 17.3998L18.1511 17.2736L18.2792 17.6573C18.3625 17.9066 18.6324 18.0332 18.8757 17.9519C19.1195 17.8705 19.2581 17.6069 19.175 17.3581L19.0467 16.9742C20.4349 16.4926 21.194 14.9988 20.732 13.616C20.3873 12.5842 19.4619 11.912 18.4337 11.8237C18.7174 11.2656 18.7877 10.6019 18.5747 9.9644C18.2238 8.91405 17.2169 8.26942 16.1531 8.31248L15.9932 7.83409L15.9932 7.83405C15.9101 7.5853 15.6407 7.45836 15.3972 7.53972C15.1541 7.62094 15.0142 7.88412 15.0975 8.13335L15.226 8.51796L14.8482 8.64416L14.7197 8.25959C14.7197 8.25958 14.7197 8.25956 14.7197 8.25955C14.6365 8.01029 14.3665 7.88406 14.1234 7.96527C13.8803 8.04648 13.7404 8.30967 13.8237 8.5589L13.9522 8.9435L13.4531 9.11024L13.4529 9.10964L13.2158 9.18885L12.2965 9.49597C12.0531 9.57727 11.9136 9.84064 11.9969 10.0899C12.0801 10.3392 12.35 10.4658 12.5933 10.3845ZM19.7351 15.2258L19.7351 15.2259C19.5246 15.6385 19.1647 15.9473 18.7194 16.0961L16.216 16.9324L15.1296 13.6805L17.0006 13.0554C17.0132 13.0512 17.0253 13.0468 17.0342 13.0436L17.6328 12.8436C18.078 12.6948 18.5514 12.7257 18.9678 12.9289L18.9679 12.9289C19.3842 13.1318 19.6915 13.4818 19.8363 13.9152C19.9811 14.3489 19.9458 14.813 19.7351 15.2258Z" fill="white" stroke="white" stroke-width="0.5"/>
</svg>
